<svg width="1920" height="953" viewBox="0 0 1920 953" fill="none" xmlns="http://www.w3.org/2000/svg">
<g clip-path="url(#clip0_2198_6873)">
<rect width="1920" height="953" fill="url(#paint0_linear_2198_6873)"/>
<g filter="url(#filter0_fn_2198_6873)">
<circle cx="1974.81" cy="549.893" r="482.399" fill="url(#paint1_radial_2198_6873)"/>
</g>
<g filter="url(#filter1_fn_2198_6873)">
<ellipse cx="2176.1" cy="770.552" rx="344.487" ry="345.074" fill="url(#paint2_radial_2198_6873)"/>
</g>
<path d="M2812.64 507.264C2716.26 183.367 2668.69 -212.84 2275.59 -188.706C1406.1 -135.323 1524.83 684.147 1781.88 612.307C2259.62 478.79 2049.25 654.724 2435.66 963.308C2822.07 1271.89 2933.11 912.135 2812.64 507.264Z" stroke="white" stroke-opacity="0.1" stroke-width="3"/>
<path d="M2786.91 509.556C2697.65 191.329 2657.24 -196.857 2272.45 -179.314C1421.35 -140.51 1524.82 662.685 1777.3 596.394C2246.55 473.189 2038.11 641.994 2411.23 949.715C2784.35 1257.44 2898.48 907.339 2786.91 509.556Z" stroke="white" stroke-opacity="0.1" stroke-width="3"/>
<path d="M2761.69 511.503C2679.35 199.089 2645.83 -180.952 2269.46 -169.731C1436.98 -144.913 1525.74 641.734 1773.54 580.829C2234.09 467.634 2027.76 629.416 2387.71 935.933C2747.67 1242.45 2864.62 902.019 2761.69 511.503Z" stroke="white" stroke-opacity="0.1" stroke-width="3"/>
<path d="M2737 513.117C2661.37 206.653 2634.48 -165.123 2266.62 -159.956C1452.99 -148.527 1527.59 621.313 1770.6 565.629C2222.25 462.139 2018.2 617.007 2365.12 921.985C2712.04 1226.96 2831.53 896.196 2737 513.117Z" stroke="white" stroke-opacity="0.1" stroke-width="3"/>
<path d="M2712.82 514.41C2643.7 214.029 2623.16 -149.371 2263.92 -149.985C1469.34 -151.345 1530.34 601.441 1768.46 550.813C2211.03 456.719 2009.41 604.786 2343.44 907.89C2677.47 1210.99 2799.22 889.887 2712.82 514.41Z" stroke="white" stroke-opacity="0.1" stroke-width="3"/>
<path d="M2689.18 515.397C2626.35 221.225 2611.9 -133.693 2261.36 -139.816C1486.04 -153.361 1533.98 582.137 1767.12 536.397C2200.42 451.386 2001.41 592.768 2322.69 893.67C2643.97 1194.57 2767.72 883.111 2689.18 515.397Z" stroke="white" stroke-opacity="0.1" stroke-width="3"/>
<path d="M2666.07 516.089C2609.32 228.249 2600.68 -118.087 2258.94 -129.446C1503.04 -154.57 1538.49 563.421 1766.55 522.398C2190.42 446.155 1994.16 580.971 2302.85 879.347C2611.54 1177.72 2737.01 875.889 2666.07 516.089Z" stroke="white" stroke-opacity="0.1" stroke-width="3"/>
<path d="M2643.5 516.5C2592.62 235.108 2589.52 -102.554 2256.64 -118.872C1520.35 -154.966 1543.86 545.311 1766.76 508.834C2181.02 441.039 1987.68 569.413 2283.94 864.942C2580.2 1160.47 2707.11 868.24 2643.5 516.5Z" stroke="white" stroke-opacity="0.1" stroke-width="3"/>
<path d="M2621.48 516.643C2576.24 241.811 2578.41 -87.09 2254.46 -108.092C1537.92 -154.544 1550.08 527.826 1767.72 495.721C2172.22 436.053 1981.95 558.111 2265.95 850.477C2549.95 1142.84 2678.04 860.184 2621.48 516.643Z" stroke="white" stroke-opacity="0.1" stroke-width="3"/>
<path d="M2600.02 516.53C2560.2 248.363 2567.36 -71.6962 2252.4 -97.1037C1555.76 -153.301 1557.12 510.981 1769.43 483.074C2164.01 431.207 1976.97 547.079 2248.88 835.971C2520.79 1124.86 2649.78 851.738 2600.02 516.53Z" stroke="white" stroke-opacity="0.1" stroke-width="3"/>
<path d="M2579.1 516.176C2544.49 254.777 2556.36 -56.3689 2250.45 -85.9043C1573.83 -151.232 1564.97 494.797 1771.87 470.912C2156.4 426.519 1972.72 536.337 2232.73 821.449C2492.73 1106.56 2622.36 842.926 2579.1 516.176Z" stroke="white" stroke-opacity="0.1" stroke-width="3"/>
<path d="M2558.75 515.594C2529.12 261.057 2545.42 -41.1077 2248.61 -74.4922C1592.12 -148.334 1573.61 479.29 1775.03 459.248C2149.37 421.999 1969.2 525.899 2217.49 806.929C2465.78 1087.96 2595.78 833.766 2558.75 515.594Z" stroke="white" stroke-opacity="0.1" stroke-width="3"/>
<path d="M2538.96 514.796C2514.09 267.211 2534.54 -25.912 2246.87 -62.8665C1610.6 -144.604 1583.04 464.475 1778.9 448.098C2142.92 417.661 1966.41 515.78 2203.17 792.433C2439.94 1069.09 2570.05 824.276 2538.96 514.796Z" stroke="white" stroke-opacity="0.1" stroke-width="3"/>
<path d="M2519.74 513.797C2499.4 273.25 2523.72 -10.7784 2245.23 -51.0232C1629.27 -140.039 1593.21 450.371 1783.46 437.479C2137.04 413.518 1964.32 505.999 2189.76 777.983C2415.21 1049.97 2545.17 814.481 2519.74 513.797Z" stroke="white" stroke-opacity="0.1" stroke-width="3"/>
<path d="M2501.09 512.61C2485.06 279.18 2512.96 4.29316 2243.68 -38.9621C1648.09 -134.637 1604.13 436.992 1788.7 427.403C2131.74 409.582 1962.93 496.57 2177.26 763.598C2391.6 1030.63 2521.14 804.397 2501.09 512.61Z" stroke="white" stroke-opacity="0.1" stroke-width="3"/>
<path d="M2483.02 511.249C2471.05 285.01 2502.26 19.3048 2242.22 -26.6811C1667.06 -128.395 1615.77 424.354 1794.61 417.887C2127 405.867 1962.24 487.509 2165.67 749.301C2369.1 1011.09 2497.98 794.047 2483.02 511.249Z" stroke="white" stroke-opacity="0.1" stroke-width="3"/>
<path d="M2465.52 509.726C2457.4 290.747 2491.63 34.258 2240.84 -14.1785C1686.14 -121.313 1628.12 412.472 1801.18 408.943C2122.81 402.385 1962.23 478.83 2154.98 735.111C2347.73 991.393 2475.68 783.45 2465.52 509.726Z" stroke="white" stroke-opacity="0.1" stroke-width="3"/>
<path d="M2448.61 508.057C2444.09 296.401 2481.06 49.1545 2239.54 -1.45293C1705.32 -113.389 1641.14 401.361 1808.37 400.587C2119.18 399.149 1962.89 470.549 2145.19 721.05C2327.49 971.552 2454.25 772.628 2448.61 508.057Z" stroke="white" stroke-opacity="0.1" stroke-width="3"/>
<path d="M2432.27 506.255C2431.13 301.979 2470.56 63.9963 2238.3 11.4974C1724.58 -104.623 1654.83 391.036 1816.19 392.832C2116.09 396.171 1964.21 462.682 2136.29 707.139C2308.36 951.596 2433.69 761.601 2432.27 506.255Z" stroke="white" stroke-opacity="0.1" stroke-width="3"/>
<path d="M2416.52 504.333C2418.53 307.489 2460.14 78.7836 2237.14 24.6722C1743.9 -95.0143 1669.17 381.51 1824.62 385.691C2113.54 393.461 1966.18 455.24 2128.28 693.396C2290.37 931.552 2414.01 750.388 2416.52 504.333Z" stroke="white" stroke-opacity="0.1" stroke-width="3"/>
<path d="M2401.35 502.306C2406.27 312.94 2449.77 93.5201 2236.03 38.0746C1763.26 -84.5628 1684.13 372.797 1833.64 379.177C2111.51 391.035 1968.79 448.242 2121.14 679.844C2273.49 911.446 2395.21 739.012 2401.35 502.306Z" stroke="white" stroke-opacity="0.1" stroke-width="3"/>
<path d="M2386.78 500.187C2394.37 318.341 2439.48 108.207 2234.98 51.7046C1782.64 -73.2695 1699.7 364.91 1843.24 373.303C2110.01 388.902 1972.03 441.699 2114.89 666.502C2257.75 891.305 2377.29 727.494 2386.78 500.187Z" stroke="white" stroke-opacity="0.1" stroke-width="3"/>
<path d="M2372.79 497.989C2382.81 323.699 2429.26 122.844 2233.97 65.5621C1802.03 -61.1364 1715.85 357.861 1853.39 368.08C2109.02 387.074 1975.89 435.625 2109.5 653.389C2243.12 871.154 2360.25 715.852 2372.79 497.989Z" stroke="white" stroke-opacity="0.1" stroke-width="3"/>
<path d="M2359.38 495.728C2371.61 329.023 2419.11 137.435 2233.01 79.6497C1821.39 -48.163 1732.57 351.664 1864.09 363.523C2108.53 385.563 1980.34 430.034 2104.98 640.528C2229.62 851.021 2344.1 704.11 2359.38 495.728Z" stroke="white" stroke-opacity="0.1" stroke-width="3"/>
<path d="M2346.57 493.416C2360.77 334.32 2409.03 151.981 2232.09 93.9667C1840.72 -34.3525 1749.83 346.328 1875.32 359.64C2108.55 384.38 1985.39 424.94 2101.31 627.935C2217.23 830.93 2328.83 692.287 2346.57 493.416Z" stroke="white" stroke-opacity="0.1" stroke-width="3"/>
<path d="M2334.35 491.068C2350.28 339.6 2399.03 166.484 2231.2 108.514C1859.98 -19.7067 1767.61 341.867 1887.06 356.444C2109.05 383.536 1991.02 420.355 2098.5 615.632C2205.97 810.909 2314.45 680.404 2334.35 491.068Z" stroke="white" stroke-opacity="0.1" stroke-width="3"/>
<path d="M2322.72 488.698C2340.14 344.87 2389.11 180.946 2230.34 123.292C1879.18 -4.22837 1785.9 338.29 1899.29 353.946C2110.03 383.043 1997.22 416.293 2096.52 603.637C2195.81 790.982 2300.95 668.482 2322.72 488.698Z" stroke="white" stroke-opacity="0.1" stroke-width="3"/>
<path d="M2311.68 486.318C2330.35 350.139 2379.25 195.368 2229.5 138.302C1898.27 12.0797 1804.66 335.608 1912 352.156C2111.49 382.91 2003.97 412.764 2095.37 591.971C2186.77 771.177 2288.34 656.542 2311.68 486.318Z" stroke="white" stroke-opacity="0.1" stroke-width="3"/>
<path d="M2301.23 483.945C2320.92 355.416 2369.48 209.753 2228.68 153.543C1917.25 29.2143 1823.88 333.832 1925.17 351.085C2113.41 383.149 2011.26 409.784 2095.04 580.652C2178.83 751.52 2276.61 644.605 2301.23 483.945Z" stroke="white" stroke-opacity="0.1" stroke-width="3"/>
<path d="M2291.36 481.59C2311.83 360.709 2359.78 224.102 2227.87 169.015C1936.09 47.1712 1843.54 332.971 1938.78 350.742C2115.78 383.77 2019.07 407.362 2095.53 569.698C2171.99 732.035 2265.77 632.691 2291.36 481.59Z" stroke="white" stroke-opacity="0.1" stroke-width="3"/>
<path d="M2282.08 479.267C2303.1 366.024 2350.16 238.416 2227.06 184.718C1954.78 65.9452 1863.61 333.032 1952.81 351.135C2118.59 384.781 2027.4 405.51 2096.82 559.128C2166.24 712.747 2255.8 620.821 2282.08 479.267Z" stroke="white" stroke-opacity="0.1" stroke-width="3"/>
<path d="M2273.38 476.991C2294.72 371.372 2340.62 252.7 2226.26 200.653C1973.3 85.5336 1884.08 334.027 1967.25 352.277C2121.84 386.195 2036.23 404.24 2098.91 548.962C2161.58 693.684 2246.72 609.016 2273.38 476.991Z" stroke="white" stroke-opacity="0.1" stroke-width="3"/>
<path d="M2265.27 474.775C2286.68 376.759 2331.16 266.952 2225.45 216.818C1991.62 105.93 1904.91 335.961 1982.08 354.173C2125.51 388.021 2045.54 403.563 2101.77 539.216C2158 674.869 2238.51 597.295 2265.27 474.775Z" stroke="white" stroke-opacity="0.1" stroke-width="3"/>
<path d="M2257.75 472.633C2279 382.195 2321.79 281.176 2224.63 233.214C2009.74 127.129 1926.09 338.844 1997.29 356.833C2129.6 390.267 2055.33 403.489 2105.41 529.909C2155.5 656.329 2231.18 585.681 2257.75 472.633Z" stroke="white" stroke-opacity="0.1" stroke-width="3"/>
<g filter="url(#filter2_fn_2198_6873)">
<circle cx="-8.72418" cy="348.276" r="624.276" fill="url(#paint3_radial_2198_6873)"/>
</g>
<g filter="url(#filter3_fn_2198_6873)">
<ellipse cx="251.772" cy="633.832" rx="445.803" ry="446.562" fill="url(#paint4_radial_2198_6873)"/>
</g>
</g>
<defs>
<filter id="filter0_fn_2198_6873" x="1442.41" y="17.4937" width="1064.8" height="1064.8" filterUnits="userSpaceOnUse" color-interpolation-filters="sRGB">
<feFlood flood-opacity="0" result="BackgroundImageFix"/>
<feBlend mode="normal" in="SourceGraphic" in2="BackgroundImageFix" result="shape"/>
<feGaussianBlur stdDeviation="25" result="effect1_foregroundBlur_2198_6873"/>
<feTurbulence type="fractalNoise" baseFrequency="1 1" stitchTiles="stitch" numOctaves="3" result="noise" seed="4973" />
<feColorMatrix in="noise" type="luminanceToAlpha" result="alphaNoise" />
<feComponentTransfer in="alphaNoise" result="coloredNoise1">
<feFuncA type="discrete" tableValues="1 1 1 1 1 1 1 1 1 1 1 1 1 1 1 1 1 1 1 1 1 1 1 1 1 1 1 1 1 1 1 1 1 1 1 1 1 1 1 1 1 1 1 1 1 1 1 1 1 1 1 0 0 0 0 0 0 0 0 0 0 0 0 0 0 0 0 0 0 0 0 0 0 0 0 0 0 0 0 0 0 0 0 0 0 0 0 0 0 0 0 0 0 0 0 0 0 0 0 0 "/>
</feComponentTransfer>
<feComposite operator="in" in2="effect1_foregroundBlur_2198_6873" in="coloredNoise1" result="noise1Clipped" />
<feFlood flood-color="rgba(0, 0, 0, 0.68)" result="color1Flood" />
<feComposite operator="in" in2="noise1Clipped" in="color1Flood" result="color1" />
<feMerge result="effect2_noise_2198_6873">
<feMergeNode in="effect1_foregroundBlur_2198_6873" />
<feMergeNode in="color1" />
</feMerge>
</filter>
<filter id="filter1_fn_2198_6873" x="1781.62" y="375.479" width="788.975" height="790.148" filterUnits="userSpaceOnUse" color-interpolation-filters="sRGB">
<feFlood flood-opacity="0" result="BackgroundImageFix"/>
<feBlend mode="normal" in="SourceGraphic" in2="BackgroundImageFix" result="shape"/>
<feGaussianBlur stdDeviation="25" result="effect1_foregroundBlur_2198_6873"/>
<feTurbulence type="fractalNoise" baseFrequency="1 1" stitchTiles="stitch" numOctaves="3" result="noise" seed="4973" />
<feColorMatrix in="noise" type="luminanceToAlpha" result="alphaNoise" />
<feComponentTransfer in="alphaNoise" result="coloredNoise1">
<feFuncA type="discrete" tableValues="1 1 1 1 1 1 1 1 1 1 1 1 1 1 1 1 1 1 1 1 1 1 1 1 1 1 1 1 1 1 1 1 1 1 1 1 1 1 1 1 1 1 1 1 1 1 1 1 1 1 1 0 0 0 0 0 0 0 0 0 0 0 0 0 0 0 0 0 0 0 0 0 0 0 0 0 0 0 0 0 0 0 0 0 0 0 0 0 0 0 0 0 0 0 0 0 0 0 0 0 "/>
</feComponentTransfer>
<feComposite operator="in" in2="effect1_foregroundBlur_2198_6873" in="coloredNoise1" result="noise1Clipped" />
<feFlood flood-color="rgba(0, 0, 0, 0.68)" result="color1Flood" />
<feComposite operator="in" in2="noise1Clipped" in="color1Flood" result="color1" />
<feMerge result="effect2_noise_2198_6873">
<feMergeNode in="effect1_foregroundBlur_2198_6873" />
<feMergeNode in="color1" />
</feMerge>
</filter>
<filter id="filter2_fn_2198_6873" x="-683" y="-326" width="1348.55" height="1348.55" filterUnits="userSpaceOnUse" color-interpolation-filters="sRGB">
<feFlood flood-opacity="0" result="BackgroundImageFix"/>
<feBlend mode="normal" in="SourceGraphic" in2="BackgroundImageFix" result="shape"/>
<feGaussianBlur stdDeviation="25" result="effect1_foregroundBlur_2198_6873"/>
<feTurbulence type="fractalNoise" baseFrequency="1 1" stitchTiles="stitch" numOctaves="3" result="noise" seed="4973" />
<feColorMatrix in="noise" type="luminanceToAlpha" result="alphaNoise" />
<feComponentTransfer in="alphaNoise" result="coloredNoise1">
<feFuncA type="discrete" tableValues="1 1 1 1 1 1 1 1 1 1 1 1 1 1 1 1 1 1 1 1 1 1 1 1 1 1 1 1 1 1 1 1 1 1 1 1 1 1 1 1 1 1 1 1 1 1 1 1 1 1 1 0 0 0 0 0 0 0 0 0 0 0 0 0 0 0 0 0 0 0 0 0 0 0 0 0 0 0 0 0 0 0 0 0 0 0 0 0 0 0 0 0 0 0 0 0 0 0 0 0 "/>
</feComponentTransfer>
<feComposite operator="in" in2="effect1_foregroundBlur_2198_6873" in="coloredNoise1" result="noise1Clipped" />
<feFlood flood-color="rgba(0, 0, 0, 0.68)" result="color1Flood" />
<feComposite operator="in" in2="noise1Clipped" in="color1Flood" result="color1" />
<feMerge result="effect2_noise_2198_6873">
<feMergeNode in="effect1_foregroundBlur_2198_6873" />
<feMergeNode in="color1" />
</feMerge>
</filter>
<filter id="filter3_fn_2198_6873" x="-244.031" y="137.27" width="991.605" height="993.125" filterUnits="userSpaceOnUse" color-interpolation-filters="sRGB">
<feFlood flood-opacity="0" result="BackgroundImageFix"/>
<feBlend mode="normal" in="SourceGraphic" in2="BackgroundImageFix" result="shape"/>
<feGaussianBlur stdDeviation="25" result="effect1_foregroundBlur_2198_6873"/>
<feTurbulence type="fractalNoise" baseFrequency="1 1" stitchTiles="stitch" numOctaves="3" result="noise" seed="4973" />
<feColorMatrix in="noise" type="luminanceToAlpha" result="alphaNoise" />
<feComponentTransfer in="alphaNoise" result="coloredNoise1">
<feFuncA type="discrete" tableValues="1 1 1 1 1 1 1 1 1 1 1 1 1 1 1 1 1 1 1 1 1 1 1 1 1 1 1 1 1 1 1 1 1 1 1 1 1 1 1 1 1 1 1 1 1 1 1 1 1 1 1 0 0 0 0 0 0 0 0 0 0 0 0 0 0 0 0 0 0 0 0 0 0 0 0 0 0 0 0 0 0 0 0 0 0 0 0 0 0 0 0 0 0 0 0 0 0 0 0 0 "/>
</feComponentTransfer>
<feComposite operator="in" in2="effect1_foregroundBlur_2198_6873" in="coloredNoise1" result="noise1Clipped" />
<feFlood flood-color="rgba(0, 0, 0, 0.68)" result="color1Flood" />
<feComposite operator="in" in2="noise1Clipped" in="color1Flood" result="color1" />
<feMerge result="effect2_noise_2198_6873">
<feMergeNode in="effect1_foregroundBlur_2198_6873" />
<feMergeNode in="color1" />
</feMerge>
</filter>
<linearGradient id="paint0_linear_2198_6873" x1="1920" y1="476.5" x2="0" y2="476.5" gradientUnits="userSpaceOnUse">
<stop stop-color="#3D3739"/>
<stop offset="0.5"/>
<stop offset="1" stop-color="#3D393A"/>
</linearGradient>
<radialGradient id="paint1_radial_2198_6873" cx="0" cy="0" r="1" gradientUnits="userSpaceOnUse" gradientTransform="translate(1974.81 549.893) rotate(90) scale(482.399)">
<stop stop-color="#BE3856" stop-opacity="0.3"/>
<stop offset="1" stop-color="#BE3856" stop-opacity="0"/>
</radialGradient>
<radialGradient id="paint2_radial_2198_6873" cx="0" cy="0" r="1" gradientUnits="userSpaceOnUse" gradientTransform="translate(2176.1 770.552) rotate(90) scale(345.074 344.487)">
<stop stop-color="white" stop-opacity="0.1"/>
<stop offset="1" stop-color="white" stop-opacity="0"/>
</radialGradient>
<radialGradient id="paint3_radial_2198_6873" cx="0" cy="0" r="1" gradientUnits="userSpaceOnUse" gradientTransform="translate(-8.72418 348.276) rotate(90) scale(624.276)">
<stop stop-color="#BE3856" stop-opacity="0.3"/>
<stop offset="1" stop-color="#BE3856" stop-opacity="0"/>
</radialGradient>
<radialGradient id="paint4_radial_2198_6873" cx="0" cy="0" r="1" gradientUnits="userSpaceOnUse" gradientTransform="translate(251.772 633.832) rotate(90) scale(446.562 445.803)">
<stop stop-color="white" stop-opacity="0.1"/>
<stop offset="1" stop-color="white" stop-opacity="0"/>
</radialGradient>
<clipPath id="clip0_2198_6873">
<rect width="1920" height="953" fill="white"/>
</clipPath>
</defs>
</svg>
