<svg width="1920" height="6508" viewBox="0 0 1920 6508" fill="none" xmlns="http://www.w3.org/2000/svg">
<g clip-path="url(#clip0_2198_5117)">
<rect width="1920" height="6508" fill="url(#paint0_linear_2198_5117)"/>
<g filter="url(#filter0_fn_2198_5117)">
<circle cx="-8.72418" cy="2947.28" r="624.276" fill="url(#paint1_radial_2198_5117)"/>
</g>
<g filter="url(#filter1_fn_2198_5117)">
<ellipse cx="251.771" cy="3232.83" rx="445.803" ry="446.562" fill="url(#paint2_radial_2198_5117)"/>
</g>
<g filter="url(#filter2_fn_2198_5117)">
<circle cx="-67.1131" cy="962.887" r="389.887" fill="url(#paint3_radial_2198_5117)"/>
</g>
<g filter="url(#filter3_fn_2198_5117)">
<ellipse cx="95.5772" cy="1141.23" rx="278.423" ry="278.897" fill="url(#paint4_radial_2198_5117)"/>
</g>
<g filter="url(#filter4_fn_2198_5117)">
<circle cx="-67.1131" cy="4031.89" r="389.887" fill="url(#paint5_radial_2198_5117)"/>
</g>
<g filter="url(#filter5_fn_2198_5117)">
<ellipse cx="95.5772" cy="4210.23" rx="278.423" ry="278.897" fill="url(#paint6_radial_2198_5117)"/>
</g>
<g filter="url(#filter6_fn_2198_5117)">
<circle cx="1974.81" cy="2654.89" r="482.399" fill="url(#paint7_radial_2198_5117)"/>
</g>
<g filter="url(#filter7_fn_2198_5117)">
<ellipse cx="2176.1" cy="2875.55" rx="344.487" ry="345.074" fill="url(#paint8_radial_2198_5117)"/>
</g>
<path d="M2812.64 2612.26C2716.26 2288.37 2668.69 1892.16 2275.59 1916.29C1406.1 1969.68 1524.83 2789.15 1781.88 2717.31C2259.62 2583.79 2049.25 2759.72 2435.66 3068.31C2822.07 3376.89 2933.11 3017.14 2812.64 2612.26Z" stroke="white" stroke-opacity="0.1" stroke-width="3"/>
<path d="M2786.91 2614.56C2697.65 2296.33 2657.24 1908.14 2272.45 1925.69C1421.35 1964.49 1524.82 2767.69 1777.3 2701.39C2246.55 2578.19 2038.11 2746.99 2411.23 3054.71C2784.35 3362.44 2898.48 3012.34 2786.91 2614.56Z" stroke="white" stroke-opacity="0.1" stroke-width="3"/>
<path d="M2761.69 2616.5C2679.35 2304.09 2645.84 1924.05 2269.46 1935.27C1436.98 1960.09 1525.75 2746.73 1773.54 2685.83C2234.09 2572.63 2027.76 2734.42 2387.71 3040.93C2747.67 3347.45 2864.62 3007.02 2761.69 2616.5Z" stroke="white" stroke-opacity="0.1" stroke-width="3"/>
<path d="M2737 2618.12C2661.37 2311.65 2634.48 1939.88 2266.62 1945.04C1452.99 1956.47 1527.59 2726.31 1770.6 2670.63C2222.25 2567.14 2018.2 2722.01 2365.12 3026.98C2712.04 3331.96 2831.53 3001.2 2737 2618.12Z" stroke="white" stroke-opacity="0.1" stroke-width="3"/>
<path d="M2712.82 2619.41C2643.7 2319.03 2623.16 1955.63 2263.92 1955.01C1469.34 1953.65 1530.34 2706.44 1768.46 2655.81C2211.03 2561.72 2009.41 2709.79 2343.44 3012.89C2677.47 3315.99 2799.23 2994.89 2712.82 2619.41Z" stroke="white" stroke-opacity="0.1" stroke-width="3"/>
<path d="M2689.18 2620.4C2626.35 2326.22 2611.9 1971.31 2261.36 1965.18C1486.04 1951.64 1533.97 2687.14 1767.12 2641.4C2200.42 2556.39 2001.41 2697.77 2322.69 2998.67C2643.97 3299.57 2767.72 2988.11 2689.18 2620.4Z" stroke="white" stroke-opacity="0.1" stroke-width="3"/>
<path d="M2666.07 2621.09C2609.32 2333.25 2600.68 1986.91 2258.94 1975.55C1503.04 1950.43 1538.49 2668.42 1766.55 2627.4C2190.42 2551.15 1994.16 2685.97 2302.85 2984.35C2611.54 3282.72 2737.01 2980.89 2666.07 2621.09Z" stroke="white" stroke-opacity="0.1" stroke-width="3"/>
<path d="M2643.5 2621.5C2592.62 2340.11 2589.52 2002.45 2256.64 1986.13C1520.34 1950.03 1543.86 2650.31 1766.75 2613.83C2181.02 2546.04 1987.68 2674.41 2283.94 2969.94C2580.2 3265.47 2707.11 2973.24 2643.5 2621.5Z" stroke="white" stroke-opacity="0.1" stroke-width="3"/>
<path d="M2621.48 2621.64C2576.24 2346.81 2578.41 2017.91 2254.46 1996.91C1537.92 1950.46 1550.08 2632.83 1767.72 2600.72C2172.22 2541.05 1981.95 2663.11 2265.95 2955.48C2549.95 3247.84 2678.03 2965.18 2621.48 2621.64Z" stroke="white" stroke-opacity="0.1" stroke-width="3"/>
<path d="M2600.02 2621.53C2560.2 2353.36 2567.36 2033.3 2252.4 2007.9C1555.76 1951.7 1557.12 2615.98 1769.43 2588.07C2164.01 2536.21 1976.97 2652.08 2248.88 2940.97C2520.79 3229.86 2649.78 2956.74 2600.02 2621.53Z" stroke="white" stroke-opacity="0.1" stroke-width="3"/>
<path d="M2579.1 2621.18C2544.5 2359.78 2556.36 2048.63 2250.45 2019.1C1573.83 1953.77 1564.97 2599.8 1771.87 2575.91C2156.4 2531.52 1972.72 2641.34 2232.73 2926.45C2492.73 3211.56 2622.36 2947.93 2579.1 2621.18Z" stroke="white" stroke-opacity="0.1" stroke-width="3"/>
<path d="M2558.75 2620.59C2529.12 2366.06 2545.42 2063.89 2248.61 2030.51C1592.12 1956.67 1573.61 2584.29 1775.03 2564.25C2149.37 2527 1969.2 2630.9 2217.49 2911.93C2465.78 3192.96 2595.78 2938.77 2558.75 2620.59Z" stroke="white" stroke-opacity="0.1" stroke-width="3"/>
<path d="M2538.96 2619.8C2514.09 2372.21 2534.54 2079.09 2246.87 2042.13C1610.6 1960.4 1583.04 2569.47 1778.9 2553.1C2142.92 2522.66 1966.41 2620.78 2203.17 2897.43C2439.94 3174.09 2570.05 2929.28 2538.96 2619.8Z" stroke="white" stroke-opacity="0.1" stroke-width="3"/>
<path d="M2519.74 2618.8C2499.4 2378.25 2523.72 2094.22 2245.23 2053.98C1629.27 1964.96 1593.21 2555.37 1783.46 2542.48C2137.04 2518.52 1964.32 2611 2189.76 2882.98C2415.21 3154.97 2545.17 2919.48 2519.74 2618.8Z" stroke="white" stroke-opacity="0.1" stroke-width="3"/>
<path d="M2501.09 2617.61C2485.06 2384.18 2512.96 2109.29 2243.68 2066.04C1648.09 1970.36 1604.13 2541.99 1788.7 2532.4C2131.74 2514.58 1962.93 2601.57 2177.26 2868.6C2391.6 3135.63 2521.14 2909.4 2501.09 2617.61Z" stroke="white" stroke-opacity="0.1" stroke-width="3"/>
<path d="M2483.02 2616.25C2471.05 2390.01 2502.26 2124.3 2242.22 2078.32C1667.06 1976.6 1615.77 2529.35 1794.61 2522.89C2127 2510.87 1962.24 2592.51 2165.67 2854.3C2369.1 3116.09 2497.98 2899.05 2483.02 2616.25Z" stroke="white" stroke-opacity="0.1" stroke-width="3"/>
<path d="M2465.52 2614.73C2457.4 2395.75 2491.63 2139.26 2240.84 2090.82C1686.14 1983.69 1628.12 2517.47 1801.18 2513.94C2122.81 2507.39 1962.23 2583.83 2154.98 2840.11C2347.73 3096.39 2475.68 2888.45 2465.52 2614.73Z" stroke="white" stroke-opacity="0.1" stroke-width="3"/>
<path d="M2448.61 2613.06C2444.09 2401.4 2481.06 2154.15 2239.54 2103.55C1705.32 1991.61 1641.14 2506.36 1808.37 2505.59C2119.18 2504.15 1962.89 2575.55 2145.19 2826.05C2327.49 3076.55 2454.25 2877.63 2448.61 2613.06Z" stroke="white" stroke-opacity="0.1" stroke-width="3"/>
<path d="M2432.27 2611.25C2431.13 2406.98 2470.57 2169 2238.31 2116.5C1724.58 2000.38 1654.83 2496.04 1816.19 2497.83C2116.09 2501.17 1964.21 2567.68 2136.29 2812.14C2308.37 3056.6 2433.69 2866.6 2432.27 2611.25Z" stroke="white" stroke-opacity="0.1" stroke-width="3"/>
<path d="M2416.52 2609.33C2418.53 2412.49 2460.14 2183.78 2237.14 2129.67C1743.9 2009.99 1669.17 2486.51 1824.62 2490.69C2113.54 2498.46 1966.18 2560.24 2128.28 2798.4C2290.37 3036.55 2414.01 2855.39 2416.52 2609.33Z" stroke="white" stroke-opacity="0.1" stroke-width="3"/>
<path d="M2401.35 2607.31C2406.27 2417.94 2449.77 2198.52 2236.03 2143.07C1763.26 2020.44 1684.13 2477.8 1833.64 2484.18C2111.51 2496.03 1968.79 2553.24 2121.14 2784.84C2273.49 3016.45 2395.21 2844.01 2401.35 2607.31Z" stroke="white" stroke-opacity="0.1" stroke-width="3"/>
<path d="M2386.78 2605.19C2394.36 2423.34 2439.48 2213.21 2234.98 2156.7C1782.64 2031.73 1699.7 2469.91 1843.24 2478.3C2110.01 2493.9 1972.03 2546.7 2114.89 2771.5C2257.75 2996.31 2377.29 2832.49 2386.78 2605.19Z" stroke="white" stroke-opacity="0.1" stroke-width="3"/>
<path d="M2372.79 2602.99C2382.81 2428.7 2429.26 2227.84 2233.97 2170.56C1802.03 2043.86 1715.85 2462.86 1853.39 2473.08C2109.02 2492.07 1975.88 2540.62 2109.5 2758.39C2243.12 2976.15 2360.25 2820.85 2372.79 2602.99Z" stroke="white" stroke-opacity="0.1" stroke-width="3"/>
<path d="M2359.39 2600.73C2371.61 2434.02 2419.11 2242.43 2233.01 2184.65C1821.39 2056.84 1732.57 2456.66 1864.09 2468.52C2108.53 2490.56 1980.34 2535.03 2104.98 2745.53C2229.62 2956.02 2344.1 2809.11 2359.39 2600.73Z" stroke="white" stroke-opacity="0.1" stroke-width="3"/>
<path d="M2346.57 2598.42C2360.77 2439.32 2409.03 2256.98 2232.09 2198.97C1840.72 2070.65 1749.83 2451.33 1875.32 2464.64C2108.55 2489.38 1985.39 2529.94 2101.32 2732.93C2217.24 2935.93 2328.83 2797.29 2346.57 2598.42Z" stroke="white" stroke-opacity="0.1" stroke-width="3"/>
<path d="M2334.35 2596.07C2350.28 2444.6 2399.03 2271.48 2231.2 2213.51C1859.99 2085.29 1767.61 2446.87 1887.06 2461.44C2109.05 2488.54 1991.02 2525.35 2098.5 2720.63C2205.97 2915.91 2314.45 2785.4 2334.35 2596.07Z" stroke="white" stroke-opacity="0.1" stroke-width="3"/>
<path d="M2322.72 2593.7C2340.14 2449.87 2389.11 2285.95 2230.34 2228.29C1879.18 2100.77 1785.9 2443.29 1899.29 2458.95C2110.03 2488.04 1997.22 2521.29 2096.52 2708.64C2195.81 2895.98 2300.95 2773.48 2322.72 2593.7Z" stroke="white" stroke-opacity="0.1" stroke-width="3"/>
<path d="M2311.68 2591.32C2330.35 2455.14 2379.25 2300.37 2229.5 2243.3C1898.27 2117.08 1804.66 2440.61 1912 2457.16C2111.49 2487.91 2003.97 2517.76 2095.37 2696.97C2186.77 2876.18 2288.34 2761.54 2311.68 2591.32Z" stroke="white" stroke-opacity="0.1" stroke-width="3"/>
<path d="M2301.22 2588.94C2320.92 2460.42 2369.48 2314.75 2228.68 2258.54C1917.25 2134.21 1823.88 2438.83 1925.17 2456.08C2113.41 2488.15 2011.26 2514.78 2095.04 2685.65C2178.83 2856.52 2276.61 2749.6 2301.22 2588.94Z" stroke="white" stroke-opacity="0.1" stroke-width="3"/>
<path d="M2291.36 2586.59C2311.83 2465.71 2359.78 2329.1 2227.87 2274.01C1936.09 2152.17 1843.54 2437.97 1938.77 2455.74C2115.78 2488.77 2019.07 2512.36 2095.53 2674.7C2171.98 2837.03 2265.77 2737.69 2291.36 2586.59Z" stroke="white" stroke-opacity="0.1" stroke-width="3"/>
<path d="M2282.08 2584.27C2303.1 2471.02 2350.16 2343.42 2227.06 2289.72C1954.78 2170.94 1863.61 2438.03 1952.81 2456.14C2118.59 2489.78 2027.4 2510.51 2096.82 2664.13C2166.24 2817.75 2255.8 2725.82 2282.08 2584.27Z" stroke="white" stroke-opacity="0.1" stroke-width="3"/>
<path d="M2273.38 2581.99C2294.72 2476.37 2340.63 2357.7 2226.26 2305.65C1973.3 2190.53 1884.08 2439.03 1967.25 2457.28C2121.84 2491.2 2036.23 2509.24 2098.91 2653.96C2161.58 2798.68 2246.72 2714.02 2273.38 2581.99Z" stroke="white" stroke-opacity="0.1" stroke-width="3"/>
<path d="M2265.27 2579.77C2286.68 2481.76 2331.16 2371.95 2225.45 2321.82C1991.62 2210.93 1904.91 2440.96 1982.08 2459.17C2125.51 2493.02 2045.54 2508.56 2101.77 2644.22C2158 2779.87 2238.51 2702.3 2265.27 2579.77Z" stroke="white" stroke-opacity="0.1" stroke-width="3"/>
<path d="M2257.74 2577.63C2279 2487.19 2321.79 2386.18 2224.63 2338.21C2009.74 2232.13 1926.09 2443.84 1997.28 2461.83C2129.6 2495.27 2055.32 2508.49 2105.41 2634.91C2155.5 2761.33 2231.18 2690.68 2257.74 2577.63Z" stroke="white" stroke-opacity="0.1" stroke-width="3"/>
<g filter="url(#filter8_fn_2198_5117)">
<circle cx="1974.81" cy="5333.89" r="482.399" fill="url(#paint9_radial_2198_5117)"/>
</g>
<g filter="url(#filter9_fn_2198_5117)">
<ellipse cx="2176.1" cy="5554.55" rx="344.487" ry="345.074" fill="url(#paint10_radial_2198_5117)"/>
</g>
<path d="M2812.64 5291.26C2716.26 4967.37 2668.69 4571.16 2275.59 4595.29C1406.11 4648.68 1524.83 5468.15 1781.88 5396.31C2259.62 5262.79 2049.25 5438.72 2435.66 5747.31C2822.08 6055.89 2933.12 5696.14 2812.64 5291.26Z" stroke="white" stroke-opacity="0.1" stroke-width="3"/>
<path d="M2786.91 5293.56C2697.65 4975.33 2657.24 4587.14 2272.45 4604.69C1421.35 4643.49 1524.82 5446.69 1777.3 5380.39C2246.55 5257.19 2038.11 5425.99 2411.23 5733.72C2784.35 6041.44 2898.49 5691.34 2786.91 5293.56Z" stroke="white" stroke-opacity="0.1" stroke-width="3"/>
<path d="M2761.69 5295.5C2679.35 4983.09 2645.84 4603.05 2269.46 4614.27C1436.98 4639.09 1525.75 5425.73 1773.54 5364.83C2234.09 5251.63 2027.76 5413.42 2387.71 5719.93C2747.67 6026.45 2864.62 5686.02 2761.69 5295.5Z" stroke="white" stroke-opacity="0.1" stroke-width="3"/>
<path d="M2737 5297.12C2661.37 4990.65 2634.48 4618.88 2266.62 4624.04C1452.99 4635.47 1527.59 5405.31 1770.6 5349.63C2222.25 5246.14 2018.2 5401.01 2365.12 5705.98C2712.04 6010.96 2831.53 5680.2 2737 5297.12Z" stroke="white" stroke-opacity="0.1" stroke-width="3"/>
<path d="M2712.82 5298.41C2643.7 4998.03 2623.16 4634.63 2263.92 4634.01C1469.34 4632.66 1530.34 5385.44 1768.46 5334.81C2211.03 5240.72 2009.41 5388.79 2343.44 5691.89C2677.47 5994.99 2799.23 5673.89 2712.82 5298.41Z" stroke="white" stroke-opacity="0.1" stroke-width="3"/>
<path d="M2689.18 5299.4C2626.35 5005.23 2611.9 4650.31 2261.37 4644.18C1486.04 4630.64 1533.98 5366.14 1767.12 5320.4C2200.42 5235.39 2001.41 5376.77 2322.69 5677.67C2643.97 5978.57 2767.72 5667.11 2689.18 5299.4Z" stroke="white" stroke-opacity="0.1" stroke-width="3"/>
<path d="M2666.07 5300.09C2609.32 5012.25 2600.68 4665.91 2258.94 4654.55C1503.04 4629.43 1538.49 5347.42 1766.55 5306.4C2190.42 5230.15 1994.16 5364.97 2302.85 5663.35C2611.54 5961.72 2737.01 5659.89 2666.07 5300.09Z" stroke="white" stroke-opacity="0.1" stroke-width="3"/>
<path d="M2643.5 5300.5C2592.62 5019.11 2589.52 4681.45 2256.64 4665.13C1520.35 4629.03 1543.86 5329.31 1766.76 5292.83C2181.02 5225.04 1987.68 5353.41 2283.94 5648.94C2580.2 5944.47 2707.11 5652.24 2643.5 5300.5Z" stroke="white" stroke-opacity="0.1" stroke-width="3"/>
<path d="M2621.48 5300.64C2576.24 5025.81 2578.41 4696.91 2254.46 4675.91C1537.92 4629.46 1550.08 5311.83 1767.72 5279.72C2172.22 5220.05 1981.95 5342.11 2265.95 5634.48C2549.95 5926.84 2678.04 5644.18 2621.48 5300.64Z" stroke="white" stroke-opacity="0.1" stroke-width="3"/>
<path d="M2600.02 5300.53C2560.2 5032.36 2567.36 4712.3 2252.4 4686.9C1555.76 4630.7 1557.12 5294.98 1769.43 5267.07C2164.01 5215.21 1976.97 5331.08 2248.88 5619.97C2520.79 5908.86 2649.78 5635.74 2600.02 5300.53Z" stroke="white" stroke-opacity="0.1" stroke-width="3"/>
<path d="M2579.11 5300.18C2544.5 5038.78 2556.36 4727.63 2250.45 4698.1C1573.83 4632.77 1564.97 5278.8 1771.87 5254.91C2156.4 5210.52 1972.72 5320.34 2232.73 5605.45C2492.73 5890.56 2622.37 5626.93 2579.11 5300.18Z" stroke="white" stroke-opacity="0.1" stroke-width="3"/>
<path d="M2558.75 5299.59C2529.12 5045.06 2545.42 4742.89 2248.61 4709.51C1592.12 4635.67 1573.61 5263.29 1775.03 5243.25C2149.37 5206 1969.2 5309.9 2217.49 5590.93C2465.78 5871.96 2595.78 5617.77 2558.75 5299.59Z" stroke="white" stroke-opacity="0.1" stroke-width="3"/>
<path d="M2538.96 5298.8C2514.09 5051.21 2534.54 4758.09 2246.87 4721.13C1610.61 4639.4 1583.04 5248.48 1778.9 5232.1C2142.92 5201.66 1966.41 5299.78 2203.17 5576.43C2439.94 5853.09 2570.05 5608.28 2538.96 5298.8Z" stroke="white" stroke-opacity="0.1" stroke-width="3"/>
<path d="M2519.74 5297.8C2499.4 5057.25 2523.72 4773.22 2245.23 4732.98C1629.27 4643.96 1593.21 5234.37 1783.46 5221.48C2137.05 5197.52 1964.32 5290 2189.76 5561.98C2415.21 5833.97 2545.17 5598.48 2519.74 5297.8Z" stroke="white" stroke-opacity="0.1" stroke-width="3"/>
<path d="M2501.1 5296.61C2485.06 5063.18 2512.96 4788.29 2243.69 4745.04C1648.09 4649.36 1604.13 5220.99 1788.71 5211.4C2131.74 5193.58 1962.93 5280.57 2177.26 5547.6C2391.6 5814.63 2521.14 5588.4 2501.1 5296.61Z" stroke="white" stroke-opacity="0.1" stroke-width="3"/>
<path d="M2483.02 5295.25C2471.06 5069.01 2502.26 4803.31 2242.22 4757.32C1667.06 4655.61 1615.77 5208.35 1794.61 5201.89C2127 5189.87 1962.24 5271.51 2165.67 5533.3C2369.1 5795.09 2497.98 5578.05 2483.02 5295.25Z" stroke="white" stroke-opacity="0.1" stroke-width="3"/>
<path d="M2465.52 5293.73C2457.4 5074.75 2491.63 4818.26 2240.84 4769.82C1686.14 4662.69 1628.12 5196.47 1801.18 5192.94C2122.82 5186.39 1962.23 5262.83 2154.98 5519.11C2347.73 5775.39 2475.68 5567.45 2465.52 5293.73Z" stroke="white" stroke-opacity="0.1" stroke-width="3"/>
<path d="M2448.61 5292.06C2444.09 5080.4 2481.06 4833.15 2239.54 4782.55C1705.32 4670.61 1641.14 5185.36 1808.37 5184.59C2119.18 5183.15 1962.89 5254.55 2145.19 5505.05C2327.49 5755.55 2454.25 5556.63 2448.61 5292.06Z" stroke="white" stroke-opacity="0.1" stroke-width="3"/>
<path d="M2432.27 5290.26C2431.14 5085.98 2470.57 4848 2238.31 4795.5C1724.58 4679.38 1654.84 5175.04 1816.2 5176.83C2116.09 5180.17 1964.21 5246.68 2136.29 5491.14C2308.37 5735.6 2433.69 5545.6 2432.27 5290.26Z" stroke="white" stroke-opacity="0.1" stroke-width="3"/>
<path d="M2416.52 5288.33C2418.53 5091.49 2460.14 4862.78 2237.14 4808.67C1743.9 4688.99 1669.17 5165.51 1824.62 5169.69C2113.54 5177.46 1966.18 5239.24 2128.28 5477.4C2290.37 5715.55 2414.01 5534.39 2416.52 5288.33Z" stroke="white" stroke-opacity="0.1" stroke-width="3"/>
<path d="M2401.35 5286.31C2406.27 5096.94 2449.77 4877.52 2236.03 4822.07C1763.26 4699.44 1684.13 5156.8 1833.64 5163.18C2111.51 5175.04 1968.79 5232.24 2121.14 5463.84C2273.49 5695.45 2395.21 5523.01 2401.35 5286.31Z" stroke="white" stroke-opacity="0.1" stroke-width="3"/>
<path d="M2386.78 5284.19C2394.37 5102.34 2439.48 4892.21 2234.98 4835.7C1782.64 4710.73 1699.7 5148.91 1843.24 5157.3C2110.01 5172.9 1972.03 5225.7 2114.89 5450.5C2257.75 5675.31 2377.29 5511.49 2386.78 5284.19Z" stroke="white" stroke-opacity="0.1" stroke-width="3"/>
<path d="M2372.79 5281.99C2382.81 5107.7 2429.26 4906.84 2233.97 4849.56C1802.03 4722.86 1715.85 5141.86 1853.39 5152.08C2109.02 5171.07 1975.89 5219.62 2109.5 5437.39C2243.12 5655.15 2360.25 5499.85 2372.79 5281.99Z" stroke="white" stroke-opacity="0.1" stroke-width="3"/>
<path d="M2359.39 5279.73C2371.62 5113.02 2419.11 4921.44 2233.01 4863.65C1821.39 4735.84 1732.57 5135.66 1864.09 5147.52C2108.53 5169.56 1980.35 5214.03 2104.98 5424.53C2229.62 5635.02 2344.1 5488.11 2359.39 5279.73Z" stroke="white" stroke-opacity="0.1" stroke-width="3"/>
<path d="M2346.57 5277.42C2360.77 5118.32 2409.04 4935.98 2232.09 4877.97C1840.72 4749.65 1749.83 5130.33 1875.32 5143.64C2108.55 5168.38 1985.4 5208.94 2101.32 5411.94C2217.24 5614.93 2328.83 5476.29 2346.57 5277.42Z" stroke="white" stroke-opacity="0.1" stroke-width="3"/>
<path d="M2334.35 5275.07C2350.28 5123.6 2399.03 4950.48 2231.2 4892.51C1859.99 4764.29 1767.61 5125.87 1887.06 5140.44C2109.05 5167.54 1991.03 5204.36 2098.5 5399.63C2205.97 5594.91 2314.45 5464.4 2334.35 5275.07Z" stroke="white" stroke-opacity="0.1" stroke-width="3"/>
<path d="M2322.72 5272.7C2340.14 5128.87 2389.11 4964.95 2230.34 4907.29C1879.18 4779.77 1785.9 5122.29 1899.29 5137.95C2110.03 5167.04 1997.22 5200.29 2096.52 5387.64C2195.81 5574.98 2300.95 5452.48 2322.72 5272.7Z" stroke="white" stroke-opacity="0.1" stroke-width="3"/>
<path d="M2311.68 5270.32C2330.35 5134.14 2379.26 4979.37 2229.5 4922.3C1898.27 4796.08 1804.66 5119.61 1912 5136.16C2111.49 5166.91 2003.97 5196.76 2095.37 5375.97C2186.77 5555.18 2288.34 5440.54 2311.68 5270.32Z" stroke="white" stroke-opacity="0.1" stroke-width="3"/>
<path d="M2301.23 5267.94C2320.92 5139.42 2369.48 4993.75 2228.68 4937.54C1917.25 4813.21 1823.88 5117.83 1925.17 5135.08C2113.41 5167.15 2011.26 5193.78 2095.05 5364.65C2178.83 5535.52 2276.61 5428.61 2301.23 5267.94Z" stroke="white" stroke-opacity="0.1" stroke-width="3"/>
<path d="M2291.36 5265.59C2311.83 5144.71 2359.78 5008.1 2227.87 4953.02C1936.09 4831.17 1843.54 5116.97 1938.78 5134.74C2115.78 5167.77 2019.08 5191.36 2095.53 5353.7C2171.99 5516.03 2265.77 5416.69 2291.36 5265.59Z" stroke="white" stroke-opacity="0.1" stroke-width="3"/>
<path d="M2282.08 5263.27C2303.1 5150.02 2350.17 5022.42 2227.06 4968.72C1954.78 4849.95 1863.61 5117.03 1952.81 5135.14C2118.59 5168.78 2027.4 5189.51 2096.82 5343.13C2166.24 5496.75 2255.8 5404.82 2282.08 5263.27Z" stroke="white" stroke-opacity="0.1" stroke-width="3"/>
<path d="M2273.39 5260.99C2294.72 5155.37 2340.63 5036.7 2226.26 4984.65C1973.3 4869.53 1884.08 5118.03 1967.25 5136.28C2121.84 5170.2 2036.23 5188.24 2098.91 5332.96C2161.58 5477.68 2246.72 5393.02 2273.39 5260.99Z" stroke="white" stroke-opacity="0.1" stroke-width="3"/>
<path d="M2265.27 5258.78C2286.68 5160.76 2331.17 5050.95 2225.45 5000.82C1991.62 4889.93 1904.91 5119.96 1982.08 5138.17C2125.51 5172.02 2045.54 5187.56 2101.77 5323.22C2158 5458.87 2238.51 5381.3 2265.27 5258.78Z" stroke="white" stroke-opacity="0.1" stroke-width="3"/>
<path d="M2257.75 5256.63C2279 5166.19 2321.79 5065.18 2224.63 5017.21C2009.74 4911.13 1926.09 5122.84 1997.29 5140.83C2129.6 5174.27 2055.33 5187.49 2105.41 5313.91C2155.5 5440.33 2231.18 5369.68 2257.75 5256.63Z" stroke="white" stroke-opacity="0.1" stroke-width="3"/>
<g filter="url(#filter10_f_2198_5117)">
<circle cx="-527.191" cy="3537.89" r="482.399" fill="url(#paint11_radial_2198_5117)"/>
</g>
<g filter="url(#filter11_fn_2198_5117)">
<ellipse cx="-325.898" cy="3758.55" rx="344.487" ry="345.074" fill="url(#paint12_radial_2198_5117)"/>
</g>
<path d="M310.642 3495.26C214.263 3171.37 166.694 2775.16 -226.408 2799.29C-1095.89 2852.68 -977.165 3672.15 -720.116 3600.31C-242.378 3466.79 -452.75 3642.72 -66.3372 3951.31C320.076 4259.89 431.116 3900.13 310.642 3495.26Z" stroke="white" stroke-opacity="0.1" stroke-width="3"/>
<path d="M284.913 3497.56C195.655 3179.33 155.244 2791.14 -229.548 2808.69C-1080.65 2847.49 -977.175 3650.68 -724.697 3584.39C-255.453 3461.19 -463.89 3629.99 -90.7686 3937.71C282.353 4245.44 396.485 3895.34 284.913 3497.56Z" stroke="white" stroke-opacity="0.1" stroke-width="3"/>
<path d="M259.694 3499.5C177.354 3187.09 143.836 2807.05 -232.537 2818.27C-1065.02 2843.09 -976.254 3629.73 -728.455 3568.83C-267.91 3455.63 -474.24 3617.42 -114.285 3923.93C245.67 4230.45 362.619 3890.02 259.694 3499.5Z" stroke="white" stroke-opacity="0.1" stroke-width="3"/>
<path d="M234.996 3501.12C159.369 3194.65 132.476 2822.88 -235.376 2828.04C-1049.01 2839.47 -974.41 3609.31 -731.397 3553.63C-279.746 3450.14 -483.802 3605.01 -136.88 3909.98C210.042 4214.96 329.531 3884.2 234.996 3501.12Z" stroke="white" stroke-opacity="0.1" stroke-width="3"/>
<path d="M210.821 3502.41C141.697 3202.03 121.162 2838.63 -238.075 2838.01C-1032.66 2836.65 -971.663 3589.44 -733.537 3538.81C-290.969 3444.72 -492.585 3592.79 -158.557 3895.89C175.471 4198.99 297.226 3877.89 210.821 3502.41Z" stroke="white" stroke-opacity="0.1" stroke-width="3"/>
<path d="M187.178 3503.4C124.347 3209.22 109.898 2854.31 -240.635 2848.18C-1015.96 2834.64 -968.024 3570.14 -734.883 3524.4C-301.58 3439.39 -500.593 3580.77 -179.311 3881.67C141.971 4182.57 265.717 3871.11 187.178 3503.4Z" stroke="white" stroke-opacity="0.1" stroke-width="3"/>
<path d="M164.071 3504.09C107.319 3216.25 98.6835 2869.91 -243.063 2858.55C-998.956 2833.43 -963.511 3551.42 -735.449 3510.4C-311.584 3434.15 -507.835 3568.97 -199.145 3867.35C109.545 4165.72 235.01 3863.89 164.071 3504.09Z" stroke="white" stroke-opacity="0.1" stroke-width="3"/>
<path d="M141.504 3504.5C90.6171 3223.11 87.5209 2885.45 -245.363 2869.13C-981.654 2833.03 -958.139 3533.31 -735.244 3496.83C-320.984 3429.04 -514.317 3557.41 -218.058 3852.94C78.2016 4148.47 205.113 3856.24 141.504 3504.5Z" stroke="white" stroke-opacity="0.1" stroke-width="3"/>
<path d="M119.485 3504.64C74.2439 3229.81 76.4116 2900.91 -247.541 2879.91C-964.076 2833.46 -951.924 3515.83 -734.282 3483.72C-329.784 3424.05 -520.046 3546.11 -236.049 3838.48C47.9477 4130.84 176.036 3848.18 119.485 3504.64Z" stroke="white" stroke-opacity="0.1" stroke-width="3"/>
<path d="M98.0174 3504.53C58.2034 3236.36 65.3582 2916.3 -249.6 2890.9C-946.241 2834.7 -944.881 3498.98 -732.572 3471.07C-337.988 3419.21 -525.029 3535.08 -253.119 3823.97C18.7901 4112.86 147.785 3839.74 98.0174 3504.53Z" stroke="white" stroke-opacity="0.1" stroke-width="3"/>
<path d="M77.105 3504.18C42.4963 3242.78 54.3601 2931.63 -251.547 2902.1C-928.17 2836.77 -937.029 3482.8 -730.131 3458.91C-345.602 3414.52 -529.276 3524.34 -269.272 3809.45C-9.26791 4094.56 120.366 3830.93 77.105 3504.18Z" stroke="white" stroke-opacity="0.1" stroke-width="3"/>
<path d="M56.751 3503.59C27.1241 3249.06 43.4178 2946.89 -253.389 2913.51C-909.883 2839.67 -928.386 3467.29 -726.971 3447.25C-352.633 3410 -532.796 3513.9 -284.509 3794.93C-36.2222 4075.96 93.7846 3821.77 56.751 3503.59Z" stroke="white" stroke-opacity="0.1" stroke-width="3"/>
<path d="M36.964 3502.8C12.0938 3255.21 32.5375 2962.09 -255.126 2925.13C-891.395 2843.4 -918.964 3452.47 -723.101 3436.1C-359.081 3405.66 -535.593 3503.78 -298.829 3780.43C-62.0636 4057.09 68.0516 3812.28 36.964 3502.8Z" stroke="white" stroke-opacity="0.1" stroke-width="3"/>
<path d="M17.7439 3501.8C-2.59612 3261.25 21.7168 2977.22 -256.766 2936.98C-872.73 2847.96 -908.785 3438.37 -718.538 3425.48C-364.955 3401.52 -537.681 3494 -312.237 3765.98C-86.7923 4037.97 43.169 3802.48 17.7439 3501.8Z" stroke="white" stroke-opacity="0.1" stroke-width="3"/>
<path d="M-0.904864 3500.61C-16.9429 3267.18 10.9578 2992.29 -258.315 2949.04C-853.906 2853.36 -897.867 3424.99 -713.295 3415.4C-370.259 3397.58 -539.067 3484.57 -324.735 3751.6C-110.404 4018.63 19.1427 3792.4 -0.904864 3500.61Z" stroke="white" stroke-opacity="0.1" stroke-width="3"/>
<g filter="url(#filter12_fn_2198_5117)">
<circle cx="1970.85" cy="3791.45" r="401.147" transform="rotate(-180 1970.85 3791.45)" fill="url(#paint13_radial_2198_5117)"/>
</g>
<g filter="url(#filter13_fn_2198_5117)">
<ellipse cx="1803.46" cy="3607.95" rx="286.464" ry="286.952" transform="rotate(-180 1803.46 3607.95)" fill="url(#paint14_radial_2198_5117)"/>
</g>
</g>
<defs>
<filter id="filter0_fn_2198_5117" x="-683" y="2273" width="1348.55" height="1348.55" filterUnits="userSpaceOnUse" color-interpolation-filters="sRGB">
<feFlood flood-opacity="0" result="BackgroundImageFix"/>
<feBlend mode="normal" in="SourceGraphic" in2="BackgroundImageFix" result="shape"/>
<feGaussianBlur stdDeviation="25" result="effect1_foregroundBlur_2198_5117"/>
<feTurbulence type="fractalNoise" baseFrequency="1 1" stitchTiles="stitch" numOctaves="3" result="noise" seed="4973" />
<feColorMatrix in="noise" type="luminanceToAlpha" result="alphaNoise" />
<feComponentTransfer in="alphaNoise" result="coloredNoise1">
<feFuncA type="discrete" tableValues="1 1 1 1 1 1 1 1 1 1 1 1 1 1 1 1 1 1 1 1 1 1 1 1 1 1 1 1 1 1 1 1 1 1 1 1 1 1 1 1 1 1 1 1 1 1 1 1 1 1 1 0 0 0 0 0 0 0 0 0 0 0 0 0 0 0 0 0 0 0 0 0 0 0 0 0 0 0 0 0 0 0 0 0 0 0 0 0 0 0 0 0 0 0 0 0 0 0 0 0 "/>
</feComponentTransfer>
<feComposite operator="in" in2="effect1_foregroundBlur_2198_5117" in="coloredNoise1" result="noise1Clipped" />
<feFlood flood-color="rgba(0, 0, 0, 0.68)" result="color1Flood" />
<feComposite operator="in" in2="noise1Clipped" in="color1Flood" result="color1" />
<feMerge result="effect2_noise_2198_5117">
<feMergeNode in="effect1_foregroundBlur_2198_5117" />
<feMergeNode in="color1" />
</feMerge>
</filter>
<filter id="filter1_fn_2198_5117" x="-244.032" y="2736.27" width="991.605" height="993.125" filterUnits="userSpaceOnUse" color-interpolation-filters="sRGB">
<feFlood flood-opacity="0" result="BackgroundImageFix"/>
<feBlend mode="normal" in="SourceGraphic" in2="BackgroundImageFix" result="shape"/>
<feGaussianBlur stdDeviation="25" result="effect1_foregroundBlur_2198_5117"/>
<feTurbulence type="fractalNoise" baseFrequency="1 1" stitchTiles="stitch" numOctaves="3" result="noise" seed="4973" />
<feColorMatrix in="noise" type="luminanceToAlpha" result="alphaNoise" />
<feComponentTransfer in="alphaNoise" result="coloredNoise1">
<feFuncA type="discrete" tableValues="1 1 1 1 1 1 1 1 1 1 1 1 1 1 1 1 1 1 1 1 1 1 1 1 1 1 1 1 1 1 1 1 1 1 1 1 1 1 1 1 1 1 1 1 1 1 1 1 1 1 1 0 0 0 0 0 0 0 0 0 0 0 0 0 0 0 0 0 0 0 0 0 0 0 0 0 0 0 0 0 0 0 0 0 0 0 0 0 0 0 0 0 0 0 0 0 0 0 0 0 "/>
</feComponentTransfer>
<feComposite operator="in" in2="effect1_foregroundBlur_2198_5117" in="coloredNoise1" result="noise1Clipped" />
<feFlood flood-color="rgba(0, 0, 0, 0.68)" result="color1Flood" />
<feComposite operator="in" in2="noise1Clipped" in="color1Flood" result="color1" />
<feMerge result="effect2_noise_2198_5117">
<feMergeNode in="effect1_foregroundBlur_2198_5117" />
<feMergeNode in="color1" />
</feMerge>
</filter>
<filter id="filter2_fn_2198_5117" x="-507" y="523" width="879.774" height="879.774" filterUnits="userSpaceOnUse" color-interpolation-filters="sRGB">
<feFlood flood-opacity="0" result="BackgroundImageFix"/>
<feBlend mode="normal" in="SourceGraphic" in2="BackgroundImageFix" result="shape"/>
<feGaussianBlur stdDeviation="25" result="effect1_foregroundBlur_2198_5117"/>
<feTurbulence type="fractalNoise" baseFrequency="1 1" stitchTiles="stitch" numOctaves="3" result="noise" seed="4973" />
<feColorMatrix in="noise" type="luminanceToAlpha" result="alphaNoise" />
<feComponentTransfer in="alphaNoise" result="coloredNoise1">
<feFuncA type="discrete" tableValues="1 1 1 1 1 1 1 1 1 1 1 1 1 1 1 1 1 1 1 1 1 1 1 1 1 1 1 1 1 1 1 1 1 1 1 1 1 1 1 1 1 1 1 1 1 1 1 1 1 1 1 0 0 0 0 0 0 0 0 0 0 0 0 0 0 0 0 0 0 0 0 0 0 0 0 0 0 0 0 0 0 0 0 0 0 0 0 0 0 0 0 0 0 0 0 0 0 0 0 0 "/>
</feComponentTransfer>
<feComposite operator="in" in2="effect1_foregroundBlur_2198_5117" in="coloredNoise1" result="noise1Clipped" />
<feFlood flood-color="rgba(0, 0, 0, 0.68)" result="color1Flood" />
<feComposite operator="in" in2="noise1Clipped" in="color1Flood" result="color1" />
<feMerge result="effect2_noise_2198_5117">
<feMergeNode in="effect1_foregroundBlur_2198_5117" />
<feMergeNode in="color1" />
</feMerge>
</filter>
<filter id="filter3_fn_2198_5117" x="-232.846" y="812.332" width="656.846" height="657.794" filterUnits="userSpaceOnUse" color-interpolation-filters="sRGB">
<feFlood flood-opacity="0" result="BackgroundImageFix"/>
<feBlend mode="normal" in="SourceGraphic" in2="BackgroundImageFix" result="shape"/>
<feGaussianBlur stdDeviation="25" result="effect1_foregroundBlur_2198_5117"/>
<feTurbulence type="fractalNoise" baseFrequency="1 1" stitchTiles="stitch" numOctaves="3" result="noise" seed="4973" />
<feColorMatrix in="noise" type="luminanceToAlpha" result="alphaNoise" />
<feComponentTransfer in="alphaNoise" result="coloredNoise1">
<feFuncA type="discrete" tableValues="1 1 1 1 1 1 1 1 1 1 1 1 1 1 1 1 1 1 1 1 1 1 1 1 1 1 1 1 1 1 1 1 1 1 1 1 1 1 1 1 1 1 1 1 1 1 1 1 1 1 1 0 0 0 0 0 0 0 0 0 0 0 0 0 0 0 0 0 0 0 0 0 0 0 0 0 0 0 0 0 0 0 0 0 0 0 0 0 0 0 0 0 0 0 0 0 0 0 0 0 "/>
</feComponentTransfer>
<feComposite operator="in" in2="effect1_foregroundBlur_2198_5117" in="coloredNoise1" result="noise1Clipped" />
<feFlood flood-color="rgba(0, 0, 0, 0.68)" result="color1Flood" />
<feComposite operator="in" in2="noise1Clipped" in="color1Flood" result="color1" />
<feMerge result="effect2_noise_2198_5117">
<feMergeNode in="effect1_foregroundBlur_2198_5117" />
<feMergeNode in="color1" />
</feMerge>
</filter>
<filter id="filter4_fn_2198_5117" x="-507" y="3592" width="879.774" height="879.774" filterUnits="userSpaceOnUse" color-interpolation-filters="sRGB">
<feFlood flood-opacity="0" result="BackgroundImageFix"/>
<feBlend mode="normal" in="SourceGraphic" in2="BackgroundImageFix" result="shape"/>
<feGaussianBlur stdDeviation="25" result="effect1_foregroundBlur_2198_5117"/>
<feTurbulence type="fractalNoise" baseFrequency="1 1" stitchTiles="stitch" numOctaves="3" result="noise" seed="4973" />
<feColorMatrix in="noise" type="luminanceToAlpha" result="alphaNoise" />
<feComponentTransfer in="alphaNoise" result="coloredNoise1">
<feFuncA type="discrete" tableValues="1 1 1 1 1 1 1 1 1 1 1 1 1 1 1 1 1 1 1 1 1 1 1 1 1 1 1 1 1 1 1 1 1 1 1 1 1 1 1 1 1 1 1 1 1 1 1 1 1 1 1 0 0 0 0 0 0 0 0 0 0 0 0 0 0 0 0 0 0 0 0 0 0 0 0 0 0 0 0 0 0 0 0 0 0 0 0 0 0 0 0 0 0 0 0 0 0 0 0 0 "/>
</feComponentTransfer>
<feComposite operator="in" in2="effect1_foregroundBlur_2198_5117" in="coloredNoise1" result="noise1Clipped" />
<feFlood flood-color="rgba(0, 0, 0, 0.68)" result="color1Flood" />
<feComposite operator="in" in2="noise1Clipped" in="color1Flood" result="color1" />
<feMerge result="effect2_noise_2198_5117">
<feMergeNode in="effect1_foregroundBlur_2198_5117" />
<feMergeNode in="color1" />
</feMerge>
</filter>
<filter id="filter5_fn_2198_5117" x="-232.846" y="3881.33" width="656.846" height="657.794" filterUnits="userSpaceOnUse" color-interpolation-filters="sRGB">
<feFlood flood-opacity="0" result="BackgroundImageFix"/>
<feBlend mode="normal" in="SourceGraphic" in2="BackgroundImageFix" result="shape"/>
<feGaussianBlur stdDeviation="25" result="effect1_foregroundBlur_2198_5117"/>
<feTurbulence type="fractalNoise" baseFrequency="1 1" stitchTiles="stitch" numOctaves="3" result="noise" seed="4973" />
<feColorMatrix in="noise" type="luminanceToAlpha" result="alphaNoise" />
<feComponentTransfer in="alphaNoise" result="coloredNoise1">
<feFuncA type="discrete" tableValues="1 1 1 1 1 1 1 1 1 1 1 1 1 1 1 1 1 1 1 1 1 1 1 1 1 1 1 1 1 1 1 1 1 1 1 1 1 1 1 1 1 1 1 1 1 1 1 1 1 1 1 0 0 0 0 0 0 0 0 0 0 0 0 0 0 0 0 0 0 0 0 0 0 0 0 0 0 0 0 0 0 0 0 0 0 0 0 0 0 0 0 0 0 0 0 0 0 0 0 0 "/>
</feComponentTransfer>
<feComposite operator="in" in2="effect1_foregroundBlur_2198_5117" in="coloredNoise1" result="noise1Clipped" />
<feFlood flood-color="rgba(0, 0, 0, 0.68)" result="color1Flood" />
<feComposite operator="in" in2="noise1Clipped" in="color1Flood" result="color1" />
<feMerge result="effect2_noise_2198_5117">
<feMergeNode in="effect1_foregroundBlur_2198_5117" />
<feMergeNode in="color1" />
</feMerge>
</filter>
<filter id="filter6_fn_2198_5117" x="1442.41" y="2122.49" width="1064.8" height="1064.8" filterUnits="userSpaceOnUse" color-interpolation-filters="sRGB">
<feFlood flood-opacity="0" result="BackgroundImageFix"/>
<feBlend mode="normal" in="SourceGraphic" in2="BackgroundImageFix" result="shape"/>
<feGaussianBlur stdDeviation="25" result="effect1_foregroundBlur_2198_5117"/>
<feTurbulence type="fractalNoise" baseFrequency="1 1" stitchTiles="stitch" numOctaves="3" result="noise" seed="4973" />
<feColorMatrix in="noise" type="luminanceToAlpha" result="alphaNoise" />
<feComponentTransfer in="alphaNoise" result="coloredNoise1">
<feFuncA type="discrete" tableValues="1 1 1 1 1 1 1 1 1 1 1 1 1 1 1 1 1 1 1 1 1 1 1 1 1 1 1 1 1 1 1 1 1 1 1 1 1 1 1 1 1 1 1 1 1 1 1 1 1 1 1 0 0 0 0 0 0 0 0 0 0 0 0 0 0 0 0 0 0 0 0 0 0 0 0 0 0 0 0 0 0 0 0 0 0 0 0 0 0 0 0 0 0 0 0 0 0 0 0 0 "/>
</feComponentTransfer>
<feComposite operator="in" in2="effect1_foregroundBlur_2198_5117" in="coloredNoise1" result="noise1Clipped" />
<feFlood flood-color="rgba(0, 0, 0, 0.68)" result="color1Flood" />
<feComposite operator="in" in2="noise1Clipped" in="color1Flood" result="color1" />
<feMerge result="effect2_noise_2198_5117">
<feMergeNode in="effect1_foregroundBlur_2198_5117" />
<feMergeNode in="color1" />
</feMerge>
</filter>
<filter id="filter7_fn_2198_5117" x="1781.62" y="2480.48" width="788.974" height="790.148" filterUnits="userSpaceOnUse" color-interpolation-filters="sRGB">
<feFlood flood-opacity="0" result="BackgroundImageFix"/>
<feBlend mode="normal" in="SourceGraphic" in2="BackgroundImageFix" result="shape"/>
<feGaussianBlur stdDeviation="25" result="effect1_foregroundBlur_2198_5117"/>
<feTurbulence type="fractalNoise" baseFrequency="1 1" stitchTiles="stitch" numOctaves="3" result="noise" seed="4973" />
<feColorMatrix in="noise" type="luminanceToAlpha" result="alphaNoise" />
<feComponentTransfer in="alphaNoise" result="coloredNoise1">
<feFuncA type="discrete" tableValues="1 1 1 1 1 1 1 1 1 1 1 1 1 1 1 1 1 1 1 1 1 1 1 1 1 1 1 1 1 1 1 1 1 1 1 1 1 1 1 1 1 1 1 1 1 1 1 1 1 1 1 0 0 0 0 0 0 0 0 0 0 0 0 0 0 0 0 0 0 0 0 0 0 0 0 0 0 0 0 0 0 0 0 0 0 0 0 0 0 0 0 0 0 0 0 0 0 0 0 0 "/>
</feComponentTransfer>
<feComposite operator="in" in2="effect1_foregroundBlur_2198_5117" in="coloredNoise1" result="noise1Clipped" />
<feFlood flood-color="rgba(0, 0, 0, 0.68)" result="color1Flood" />
<feComposite operator="in" in2="noise1Clipped" in="color1Flood" result="color1" />
<feMerge result="effect2_noise_2198_5117">
<feMergeNode in="effect1_foregroundBlur_2198_5117" />
<feMergeNode in="color1" />
</feMerge>
</filter>
<filter id="filter8_fn_2198_5117" x="1442.41" y="4801.49" width="1064.8" height="1064.8" filterUnits="userSpaceOnUse" color-interpolation-filters="sRGB">
<feFlood flood-opacity="0" result="BackgroundImageFix"/>
<feBlend mode="normal" in="SourceGraphic" in2="BackgroundImageFix" result="shape"/>
<feGaussianBlur stdDeviation="25" result="effect1_foregroundBlur_2198_5117"/>
<feTurbulence type="fractalNoise" baseFrequency="1 1" stitchTiles="stitch" numOctaves="3" result="noise" seed="4973" />
<feColorMatrix in="noise" type="luminanceToAlpha" result="alphaNoise" />
<feComponentTransfer in="alphaNoise" result="coloredNoise1">
<feFuncA type="discrete" tableValues="1 1 1 1 1 1 1 1 1 1 1 1 1 1 1 1 1 1 1 1 1 1 1 1 1 1 1 1 1 1 1 1 1 1 1 1 1 1 1 1 1 1 1 1 1 1 1 1 1 1 1 0 0 0 0 0 0 0 0 0 0 0 0 0 0 0 0 0 0 0 0 0 0 0 0 0 0 0 0 0 0 0 0 0 0 0 0 0 0 0 0 0 0 0 0 0 0 0 0 0 "/>
</feComponentTransfer>
<feComposite operator="in" in2="effect1_foregroundBlur_2198_5117" in="coloredNoise1" result="noise1Clipped" />
<feFlood flood-color="rgba(0, 0, 0, 0.68)" result="color1Flood" />
<feComposite operator="in" in2="noise1Clipped" in="color1Flood" result="color1" />
<feMerge result="effect2_noise_2198_5117">
<feMergeNode in="effect1_foregroundBlur_2198_5117" />
<feMergeNode in="color1" />
</feMerge>
</filter>
<filter id="filter9_fn_2198_5117" x="1781.62" y="5159.48" width="788.974" height="790.148" filterUnits="userSpaceOnUse" color-interpolation-filters="sRGB">
<feFlood flood-opacity="0" result="BackgroundImageFix"/>
<feBlend mode="normal" in="SourceGraphic" in2="BackgroundImageFix" result="shape"/>
<feGaussianBlur stdDeviation="25" result="effect1_foregroundBlur_2198_5117"/>
<feTurbulence type="fractalNoise" baseFrequency="1 1" stitchTiles="stitch" numOctaves="3" result="noise" seed="4973" />
<feColorMatrix in="noise" type="luminanceToAlpha" result="alphaNoise" />
<feComponentTransfer in="alphaNoise" result="coloredNoise1">
<feFuncA type="discrete" tableValues="1 1 1 1 1 1 1 1 1 1 1 1 1 1 1 1 1 1 1 1 1 1 1 1 1 1 1 1 1 1 1 1 1 1 1 1 1 1 1 1 1 1 1 1 1 1 1 1 1 1 1 0 0 0 0 0 0 0 0 0 0 0 0 0 0 0 0 0 0 0 0 0 0 0 0 0 0 0 0 0 0 0 0 0 0 0 0 0 0 0 0 0 0 0 0 0 0 0 0 0 "/>
</feComponentTransfer>
<feComposite operator="in" in2="effect1_foregroundBlur_2198_5117" in="coloredNoise1" result="noise1Clipped" />
<feFlood flood-color="rgba(0, 0, 0, 0.68)" result="color1Flood" />
<feComposite operator="in" in2="noise1Clipped" in="color1Flood" result="color1" />
<feMerge result="effect2_noise_2198_5117">
<feMergeNode in="effect1_foregroundBlur_2198_5117" />
<feMergeNode in="color1" />
</feMerge>
</filter>
<filter id="filter10_f_2198_5117" x="-1059.59" y="3005.49" width="1064.8" height="1064.8" filterUnits="userSpaceOnUse" color-interpolation-filters="sRGB">
<feFlood flood-opacity="0" result="BackgroundImageFix"/>
<feBlend mode="normal" in="SourceGraphic" in2="BackgroundImageFix" result="shape"/>
<feGaussianBlur stdDeviation="25" result="effect1_foregroundBlur_2198_5117"/>
</filter>
<filter id="filter11_fn_2198_5117" x="-720.385" y="3363.48" width="788.974" height="790.148" filterUnits="userSpaceOnUse" color-interpolation-filters="sRGB">
<feFlood flood-opacity="0" result="BackgroundImageFix"/>
<feBlend mode="normal" in="SourceGraphic" in2="BackgroundImageFix" result="shape"/>
<feGaussianBlur stdDeviation="25" result="effect1_foregroundBlur_2198_5117"/>
<feTurbulence type="fractalNoise" baseFrequency="1 1" stitchTiles="stitch" numOctaves="3" result="noise" seed="4973" />
<feColorMatrix in="noise" type="luminanceToAlpha" result="alphaNoise" />
<feComponentTransfer in="alphaNoise" result="coloredNoise1">
<feFuncA type="discrete" tableValues="1 1 1 1 1 1 1 1 1 1 1 1 1 1 1 1 1 1 1 1 1 1 1 1 1 1 1 1 1 1 1 1 1 1 1 1 1 1 1 1 1 1 1 1 1 1 1 1 1 1 1 0 0 0 0 0 0 0 0 0 0 0 0 0 0 0 0 0 0 0 0 0 0 0 0 0 0 0 0 0 0 0 0 0 0 0 0 0 0 0 0 0 0 0 0 0 0 0 0 0 "/>
</feComponentTransfer>
<feComposite operator="in" in2="effect1_foregroundBlur_2198_5117" in="coloredNoise1" result="noise1Clipped" />
<feFlood flood-color="rgba(0, 0, 0, 0.68)" result="color1Flood" />
<feComposite operator="in" in2="noise1Clipped" in="color1Flood" result="color1" />
<feMerge result="effect2_noise_2198_5117">
<feMergeNode in="effect1_foregroundBlur_2198_5117" />
<feMergeNode in="color1" />
</feMerge>
</filter>
<filter id="filter12_fn_2198_5117" x="1519.71" y="3340.3" width="902.294" height="902.294" filterUnits="userSpaceOnUse" color-interpolation-filters="sRGB">
<feFlood flood-opacity="0" result="BackgroundImageFix"/>
<feBlend mode="normal" in="SourceGraphic" in2="BackgroundImageFix" result="shape"/>
<feGaussianBlur stdDeviation="25" result="effect1_foregroundBlur_2198_5117"/>
<feTurbulence type="fractalNoise" baseFrequency="1 1" stitchTiles="stitch" numOctaves="3" result="noise" seed="4973" />
<feColorMatrix in="noise" type="luminanceToAlpha" result="alphaNoise" />
<feComponentTransfer in="alphaNoise" result="coloredNoise1">
<feFuncA type="discrete" tableValues="1 1 1 1 1 1 1 1 1 1 1 1 1 1 1 1 1 1 1 1 1 1 1 1 1 1 1 1 1 1 1 1 1 1 1 1 1 1 1 1 1 1 1 1 1 1 1 1 1 1 1 0 0 0 0 0 0 0 0 0 0 0 0 0 0 0 0 0 0 0 0 0 0 0 0 0 0 0 0 0 0 0 0 0 0 0 0 0 0 0 0 0 0 0 0 0 0 0 0 0 "/>
</feComponentTransfer>
<feComposite operator="in" in2="effect1_foregroundBlur_2198_5117" in="coloredNoise1" result="noise1Clipped" />
<feFlood flood-color="rgba(0, 0, 0, 0.68)" result="color1Flood" />
<feComposite operator="in" in2="noise1Clipped" in="color1Flood" result="color1" />
<feMerge result="effect2_noise_2198_5117">
<feMergeNode in="effect1_foregroundBlur_2198_5117" />
<feMergeNode in="color1" />
</feMerge>
</filter>
<filter id="filter13_fn_2198_5117" x="1467" y="3271" width="672.928" height="673.904" filterUnits="userSpaceOnUse" color-interpolation-filters="sRGB">
<feFlood flood-opacity="0" result="BackgroundImageFix"/>
<feBlend mode="normal" in="SourceGraphic" in2="BackgroundImageFix" result="shape"/>
<feGaussianBlur stdDeviation="25" result="effect1_foregroundBlur_2198_5117"/>
<feTurbulence type="fractalNoise" baseFrequency="1 1" stitchTiles="stitch" numOctaves="3" result="noise" seed="4973" />
<feColorMatrix in="noise" type="luminanceToAlpha" result="alphaNoise" />
<feComponentTransfer in="alphaNoise" result="coloredNoise1">
<feFuncA type="discrete" tableValues="1 1 1 1 1 1 1 1 1 1 1 1 1 1 1 1 1 1 1 1 1 1 1 1 1 1 1 1 1 1 1 1 1 1 1 1 1 1 1 1 1 1 1 1 1 1 1 1 1 1 1 0 0 0 0 0 0 0 0 0 0 0 0 0 0 0 0 0 0 0 0 0 0 0 0 0 0 0 0 0 0 0 0 0 0 0 0 0 0 0 0 0 0 0 0 0 0 0 0 0 "/>
</feComponentTransfer>
<feComposite operator="in" in2="effect1_foregroundBlur_2198_5117" in="coloredNoise1" result="noise1Clipped" />
<feFlood flood-color="rgba(0, 0, 0, 0.68)" result="color1Flood" />
<feComposite operator="in" in2="noise1Clipped" in="color1Flood" result="color1" />
<feMerge result="effect2_noise_2198_5117">
<feMergeNode in="effect1_foregroundBlur_2198_5117" />
<feMergeNode in="color1" />
</feMerge>
</filter>
<linearGradient id="paint0_linear_2198_5117" x1="1920" y1="3254" x2="0" y2="3254" gradientUnits="userSpaceOnUse">
<stop stop-color="#3D3739"/>
<stop offset="0.5"/>
<stop offset="1" stop-color="#3D393A"/>
</linearGradient>
<radialGradient id="paint1_radial_2198_5117" cx="0" cy="0" r="1" gradientUnits="userSpaceOnUse" gradientTransform="translate(-8.72418 2947.28) rotate(90) scale(624.276)">
<stop stop-color="#BE3856" stop-opacity="0.3"/>
<stop offset="1" stop-color="#BE3856" stop-opacity="0"/>
</radialGradient>
<radialGradient id="paint2_radial_2198_5117" cx="0" cy="0" r="1" gradientUnits="userSpaceOnUse" gradientTransform="translate(251.771 3232.83) rotate(90) scale(446.562 445.803)">
<stop stop-color="white" stop-opacity="0.1"/>
<stop offset="1" stop-color="white" stop-opacity="0"/>
</radialGradient>
<radialGradient id="paint3_radial_2198_5117" cx="0" cy="0" r="1" gradientUnits="userSpaceOnUse" gradientTransform="translate(-67.1131 962.887) rotate(90) scale(389.887)">
<stop stop-color="#BE3856" stop-opacity="0.3"/>
<stop offset="1" stop-color="#BE3856" stop-opacity="0"/>
</radialGradient>
<radialGradient id="paint4_radial_2198_5117" cx="0" cy="0" r="1" gradientUnits="userSpaceOnUse" gradientTransform="translate(95.5772 1141.23) rotate(90) scale(278.897 278.423)">
<stop stop-color="white" stop-opacity="0.1"/>
<stop offset="1" stop-color="white" stop-opacity="0"/>
</radialGradient>
<radialGradient id="paint5_radial_2198_5117" cx="0" cy="0" r="1" gradientUnits="userSpaceOnUse" gradientTransform="translate(-67.1131 4031.89) rotate(90) scale(389.887)">
<stop stop-color="#BE3856" stop-opacity="0.3"/>
<stop offset="1" stop-color="#BE3856" stop-opacity="0"/>
</radialGradient>
<radialGradient id="paint6_radial_2198_5117" cx="0" cy="0" r="1" gradientUnits="userSpaceOnUse" gradientTransform="translate(95.5772 4210.23) rotate(90) scale(278.897 278.423)">
<stop stop-color="white" stop-opacity="0.1"/>
<stop offset="1" stop-color="white" stop-opacity="0"/>
</radialGradient>
<radialGradient id="paint7_radial_2198_5117" cx="0" cy="0" r="1" gradientUnits="userSpaceOnUse" gradientTransform="translate(1974.81 2654.89) rotate(90) scale(482.399)">
<stop stop-color="#BE3856" stop-opacity="0.3"/>
<stop offset="1" stop-color="#BE3856" stop-opacity="0"/>
</radialGradient>
<radialGradient id="paint8_radial_2198_5117" cx="0" cy="0" r="1" gradientUnits="userSpaceOnUse" gradientTransform="translate(2176.1 2875.55) rotate(90) scale(345.074 344.487)">
<stop stop-color="white" stop-opacity="0.1"/>
<stop offset="1" stop-color="white" stop-opacity="0"/>
</radialGradient>
<radialGradient id="paint9_radial_2198_5117" cx="0" cy="0" r="1" gradientUnits="userSpaceOnUse" gradientTransform="translate(1974.81 5333.89) rotate(90) scale(482.399)">
<stop stop-color="#BE3856" stop-opacity="0.3"/>
<stop offset="1" stop-color="#BE3856" stop-opacity="0"/>
</radialGradient>
<radialGradient id="paint10_radial_2198_5117" cx="0" cy="0" r="1" gradientUnits="userSpaceOnUse" gradientTransform="translate(2176.1 5554.55) rotate(90) scale(345.074 344.487)">
<stop stop-color="white" stop-opacity="0.1"/>
<stop offset="1" stop-color="white" stop-opacity="0"/>
</radialGradient>
<radialGradient id="paint11_radial_2198_5117" cx="0" cy="0" r="1" gradientUnits="userSpaceOnUse" gradientTransform="translate(-527.191 3537.89) rotate(90) scale(482.399)">
<stop stop-color="#BE3856" stop-opacity="0.3"/>
<stop offset="1" stop-color="#BE3856" stop-opacity="0"/>
</radialGradient>
<radialGradient id="paint12_radial_2198_5117" cx="0" cy="0" r="1" gradientUnits="userSpaceOnUse" gradientTransform="translate(-325.898 3758.55) rotate(90) scale(345.074 344.487)">
<stop stop-color="white" stop-opacity="0.1"/>
<stop offset="1" stop-color="white" stop-opacity="0"/>
</radialGradient>
<radialGradient id="paint13_radial_2198_5117" cx="0" cy="0" r="1" gradientUnits="userSpaceOnUse" gradientTransform="translate(1970.85 3791.45) rotate(90) scale(401.147)">
<stop stop-color="#BE3856" stop-opacity="0.3"/>
<stop offset="1" stop-color="#BE3856" stop-opacity="0"/>
</radialGradient>
<radialGradient id="paint14_radial_2198_5117" cx="0" cy="0" r="1" gradientUnits="userSpaceOnUse" gradientTransform="translate(1803.46 3607.95) rotate(90) scale(286.952 286.464)">
<stop stop-color="white" stop-opacity="0.1"/>
<stop offset="1" stop-color="white" stop-opacity="0"/>
</radialGradient>
<clipPath id="clip0_2198_5117">
<rect width="1920" height="6508" fill="white"/>
</clipPath>
</defs>
</svg>
