<svg width="1920" height="2460" viewBox="0 0 1920 2460" fill="none" xmlns="http://www.w3.org/2000/svg">
<g clip-path="url(#clip0_2198_7303)">
<rect width="1920" height="2460" fill="url(#paint0_linear_2198_7303)"/>
<g filter="url(#filter0_fn_2198_7303)">
<circle cx="-67.1131" cy="962.887" r="389.887" fill="url(#paint1_radial_2198_7303)"/>
</g>
<g filter="url(#filter1_fn_2198_7303)">
<ellipse cx="95.5772" cy="1141.23" rx="278.423" ry="278.897" fill="url(#paint2_radial_2198_7303)"/>
</g>
<g filter="url(#filter2_fn_2198_7303)">
<circle cx="1974.81" cy="1710.89" r="482.399" fill="url(#paint3_radial_2198_7303)"/>
</g>
<g filter="url(#filter3_fn_2198_7303)">
<ellipse cx="2176.1" cy="1931.55" rx="344.487" ry="345.074" fill="url(#paint4_radial_2198_7303)"/>
</g>
<path d="M2812.64 1668.26C2716.26 1344.37 2668.69 948.16 2275.59 972.294C1406.1 1025.68 1524.83 1845.15 1781.88 1773.31C2259.62 1639.79 2049.25 1815.72 2435.66 2124.31C2822.07 2432.89 2933.11 2073.14 2812.64 1668.26Z" stroke="white" stroke-opacity="0.1" stroke-width="3"/>
<path d="M2786.91 1670.56C2697.65 1352.33 2657.24 964.143 2272.45 981.686C1421.35 1020.49 1524.82 1823.69 1777.3 1757.39C2246.55 1634.19 2038.11 1802.99 2411.23 2110.71C2784.35 2418.44 2898.48 2068.34 2786.91 1670.56Z" stroke="white" stroke-opacity="0.1" stroke-width="3"/>
<path d="M2761.69 1672.5C2679.35 1360.09 2645.83 980.048 2269.46 991.269C1436.98 1016.09 1525.74 1802.73 1773.54 1741.83C2234.09 1628.63 2027.76 1790.42 2387.71 2096.93C2747.67 2403.45 2864.62 2063.02 2761.69 1672.5Z" stroke="white" stroke-opacity="0.1" stroke-width="3"/>
<path d="M2737 1674.12C2661.37 1367.65 2634.48 995.877 2266.62 1001.04C1452.99 1012.47 1527.59 1782.31 1770.6 1726.63C2222.25 1623.14 2018.2 1778.01 2365.12 2082.98C2712.04 2387.96 2831.53 2057.2 2737 1674.12Z" stroke="white" stroke-opacity="0.1" stroke-width="3"/>
<path d="M2712.82 1675.41C2643.7 1375.03 2623.16 1011.63 2263.92 1011.01C1469.34 1009.66 1530.34 1762.44 1768.46 1711.81C2211.03 1617.72 2009.41 1765.79 2343.44 2068.89C2677.47 2371.99 2799.22 2050.89 2712.82 1675.41Z" stroke="white" stroke-opacity="0.1" stroke-width="3"/>
<path d="M2689.18 1676.4C2626.35 1382.23 2611.9 1027.31 2261.36 1021.18C1486.04 1007.64 1533.98 1743.14 1767.12 1697.4C2200.42 1612.39 2001.41 1753.77 2322.69 2054.67C2643.97 2355.57 2767.72 2044.11 2689.18 1676.4Z" stroke="white" stroke-opacity="0.1" stroke-width="3"/>
<path d="M2666.07 1677.09C2609.32 1389.25 2600.68 1042.91 2258.94 1031.55C1503.04 1006.43 1538.49 1724.42 1766.55 1683.4C2190.42 1607.15 1994.16 1741.97 2302.85 2040.35C2611.54 2338.72 2737.01 2036.89 2666.07 1677.09Z" stroke="white" stroke-opacity="0.1" stroke-width="3"/>
<path d="M2643.5 1677.5C2592.62 1396.11 2589.52 1058.45 2256.64 1042.13C1520.35 1006.03 1543.86 1706.31 1766.76 1669.83C2181.02 1602.04 1987.68 1730.41 2283.94 2025.94C2580.2 2321.47 2707.11 2029.24 2643.5 1677.5Z" stroke="white" stroke-opacity="0.1" stroke-width="3"/>
<path d="M2621.48 1677.64C2576.24 1402.81 2578.41 1073.91 2254.46 1052.91C1537.92 1006.46 1550.08 1688.83 1767.72 1656.72C2172.22 1597.05 1981.95 1719.11 2265.95 2011.48C2549.95 2303.84 2678.04 2021.18 2621.48 1677.64Z" stroke="white" stroke-opacity="0.1" stroke-width="3"/>
<path d="M2600.02 1677.53C2560.2 1409.36 2567.36 1089.3 2252.4 1063.9C1555.76 1007.7 1557.12 1671.98 1769.43 1644.07C2164.01 1592.21 1976.97 1708.08 2248.88 1996.97C2520.79 2285.86 2649.78 2012.74 2600.02 1677.53Z" stroke="white" stroke-opacity="0.1" stroke-width="3"/>
<path d="M2579.1 1677.18C2544.49 1415.78 2556.36 1104.63 2250.45 1075.1C1573.83 1009.77 1564.97 1655.8 1771.87 1631.91C2156.4 1587.52 1972.72 1697.34 2232.73 1982.45C2492.73 2267.56 2622.36 2003.93 2579.1 1677.18Z" stroke="white" stroke-opacity="0.1" stroke-width="3"/>
<path d="M2558.75 1676.59C2529.12 1422.06 2545.42 1119.89 2248.61 1086.51C1592.12 1012.67 1573.61 1640.29 1775.03 1620.25C2149.37 1583 1969.2 1686.9 2217.49 1967.93C2465.78 2248.96 2595.78 1994.77 2558.75 1676.59Z" stroke="white" stroke-opacity="0.1" stroke-width="3"/>
<path d="M2538.96 1675.8C2514.09 1428.21 2534.54 1135.09 2246.87 1098.13C1610.6 1016.4 1583.04 1625.48 1778.9 1609.1C2142.92 1578.66 1966.41 1676.78 2203.17 1953.43C2439.94 2230.09 2570.05 1985.28 2538.96 1675.8Z" stroke="white" stroke-opacity="0.1" stroke-width="3"/>
<path d="M2519.74 1674.8C2499.4 1434.25 2523.72 1150.22 2245.23 1109.98C1629.27 1020.96 1593.21 1611.37 1783.46 1598.48C2137.04 1574.52 1964.32 1667 2189.76 1938.98C2415.21 2210.97 2545.17 1975.48 2519.74 1674.8Z" stroke="white" stroke-opacity="0.1" stroke-width="3"/>
<path d="M2501.09 1673.61C2485.06 1440.18 2512.96 1165.29 2243.68 1122.04C1648.09 1026.36 1604.13 1597.99 1788.7 1588.4C2131.74 1570.58 1962.93 1657.57 2177.26 1924.6C2391.6 2191.63 2521.14 1965.4 2501.09 1673.61Z" stroke="white" stroke-opacity="0.1" stroke-width="3"/>
<path d="M2483.02 1672.25C2471.05 1446.01 2502.26 1180.3 2242.22 1134.32C1667.06 1032.6 1615.77 1585.35 1794.61 1578.89C2127 1566.87 1962.24 1648.51 2165.67 1910.3C2369.1 2172.09 2497.98 1955.05 2483.02 1672.25Z" stroke="white" stroke-opacity="0.1" stroke-width="3"/>
<path d="M2465.52 1670.73C2457.4 1451.75 2491.63 1195.26 2240.84 1146.82C1686.14 1039.69 1628.12 1573.47 1801.18 1569.94C2122.81 1563.39 1962.23 1639.83 2154.98 1896.11C2347.73 2152.39 2475.68 1944.45 2465.52 1670.73Z" stroke="white" stroke-opacity="0.1" stroke-width="3"/>
<path d="M2448.61 1669.06C2444.09 1457.4 2481.06 1210.15 2239.54 1159.55C1705.32 1047.61 1641.14 1562.36 1808.37 1561.59C2119.18 1560.15 1962.89 1631.55 2145.19 1882.05C2327.49 2132.55 2454.25 1933.63 2448.61 1669.06Z" stroke="white" stroke-opacity="0.1" stroke-width="3"/>
<path d="M2432.27 1667.26C2431.13 1462.98 2470.56 1225 2238.3 1172.5C1724.58 1056.38 1654.83 1552.04 1816.19 1553.83C2116.09 1557.17 1964.21 1623.68 2136.29 1868.14C2308.36 2112.6 2433.69 1922.6 2432.27 1667.26Z" stroke="white" stroke-opacity="0.1" stroke-width="3"/>
<path d="M2416.52 1665.33C2418.53 1468.49 2460.14 1239.78 2237.14 1185.67C1743.9 1065.99 1669.17 1542.51 1824.62 1546.69C2113.54 1554.46 1966.18 1616.24 2128.28 1854.4C2290.37 2092.55 2414.01 1911.39 2416.52 1665.33Z" stroke="white" stroke-opacity="0.1" stroke-width="3"/>
<path d="M2401.35 1663.31C2406.27 1473.94 2449.77 1254.52 2236.03 1199.07C1763.26 1076.44 1684.13 1533.8 1833.64 1540.18C2111.51 1552.03 1968.79 1609.24 2121.14 1840.84C2273.49 2072.45 2395.21 1900.01 2401.35 1663.31Z" stroke="white" stroke-opacity="0.1" stroke-width="3"/>
<path d="M2386.78 1661.19C2394.37 1479.34 2439.48 1269.21 2234.98 1212.7C1782.64 1087.73 1699.7 1525.91 1843.24 1534.3C2110.01 1549.9 1972.03 1602.7 2114.89 1827.5C2257.75 2052.31 2377.29 1888.49 2386.78 1661.19Z" stroke="white" stroke-opacity="0.1" stroke-width="3"/>
<path d="M2372.79 1658.99C2382.81 1484.7 2429.26 1283.84 2233.97 1226.56C1802.03 1099.86 1715.85 1518.86 1853.39 1529.08C2109.02 1548.07 1975.89 1596.62 2109.5 1814.39C2243.12 2032.15 2360.25 1876.85 2372.79 1658.99Z" stroke="white" stroke-opacity="0.1" stroke-width="3"/>
<path d="M2359.38 1656.73C2371.61 1490.02 2419.11 1298.43 2233.01 1240.65C1821.39 1112.84 1732.57 1512.66 1864.09 1524.52C2108.53 1546.56 1980.34 1591.03 2104.98 1801.53C2229.62 2012.02 2344.1 1865.11 2359.38 1656.73Z" stroke="white" stroke-opacity="0.1" stroke-width="3"/>
<path d="M2346.57 1654.42C2360.77 1495.32 2409.03 1312.98 2232.09 1254.97C1840.72 1126.65 1749.83 1507.33 1875.32 1520.64C2108.55 1545.38 1985.39 1585.94 2101.31 1788.94C2217.23 1991.93 2328.83 1853.29 2346.57 1654.42Z" stroke="white" stroke-opacity="0.1" stroke-width="3"/>
<path d="M2334.35 1652.07C2350.28 1500.6 2399.03 1327.48 2231.2 1269.51C1859.98 1141.29 1767.61 1502.87 1887.06 1517.44C2109.05 1544.54 1991.02 1581.36 2098.5 1776.63C2205.97 1971.91 2314.45 1841.4 2334.35 1652.07Z" stroke="white" stroke-opacity="0.1" stroke-width="3"/>
<path d="M2322.72 1649.7C2340.14 1505.87 2389.11 1341.95 2230.34 1284.29C1879.18 1156.77 1785.9 1499.29 1899.29 1514.95C2110.03 1544.04 1997.22 1577.29 2096.52 1764.64C2195.81 1951.98 2300.95 1829.48 2322.72 1649.7Z" stroke="white" stroke-opacity="0.1" stroke-width="3"/>
<path d="M2311.68 1647.32C2330.35 1511.14 2379.25 1356.37 2229.5 1299.3C1898.27 1173.08 1804.66 1496.61 1912 1513.16C2111.49 1543.91 2003.97 1573.76 2095.37 1752.97C2186.77 1932.18 2288.34 1817.54 2311.68 1647.32Z" stroke="white" stroke-opacity="0.1" stroke-width="3"/>
<path d="M2301.23 1644.94C2320.92 1516.42 2369.48 1370.75 2228.68 1314.54C1917.25 1190.21 1823.88 1494.83 1925.17 1512.08C2113.41 1544.15 2011.26 1570.78 2095.04 1741.65C2178.83 1912.52 2276.61 1805.6 2301.23 1644.94Z" stroke="white" stroke-opacity="0.1" stroke-width="3"/>
<path d="M2291.36 1642.59C2311.83 1521.71 2359.78 1385.1 2227.87 1330.02C1936.09 1208.17 1843.54 1493.97 1938.78 1511.74C2115.78 1544.77 2019.07 1568.36 2095.53 1730.7C2171.99 1893.03 2265.77 1793.69 2291.36 1642.59Z" stroke="white" stroke-opacity="0.1" stroke-width="3"/>
<path d="M2282.08 1640.27C2303.1 1527.02 2350.16 1399.42 2227.06 1345.72C1954.78 1226.95 1863.61 1494.03 1952.81 1512.14C2118.59 1545.78 2027.4 1566.51 2096.82 1720.13C2166.24 1873.75 2255.8 1781.82 2282.08 1640.27Z" stroke="white" stroke-opacity="0.1" stroke-width="3"/>
<path d="M2273.38 1637.99C2294.72 1532.37 2340.62 1413.7 2226.26 1361.65C1973.3 1246.53 1884.08 1495.03 1967.25 1513.28C2121.84 1547.2 2036.23 1565.24 2098.91 1709.96C2161.58 1854.68 2246.72 1770.02 2273.38 1637.99Z" stroke="white" stroke-opacity="0.1" stroke-width="3"/>
<path d="M2265.27 1635.78C2286.68 1537.76 2331.16 1427.95 2225.45 1377.82C1991.62 1266.93 1904.91 1496.96 1982.08 1515.17C2125.51 1549.02 2045.54 1564.56 2101.77 1700.22C2158 1835.87 2238.51 1758.3 2265.27 1635.78Z" stroke="white" stroke-opacity="0.1" stroke-width="3"/>
<path d="M2257.75 1633.63C2279 1543.19 2321.79 1442.18 2224.63 1394.21C2009.74 1288.13 1926.09 1499.84 1997.29 1517.83C2129.6 1551.27 2055.33 1564.49 2105.41 1690.91C2155.5 1817.33 2231.18 1746.68 2257.75 1633.63Z" stroke="white" stroke-opacity="0.1" stroke-width="3"/>
</g>
<defs>
<filter id="filter0_fn_2198_7303" x="-507" y="523" width="879.773" height="879.774" filterUnits="userSpaceOnUse" color-interpolation-filters="sRGB">
<feFlood flood-opacity="0" result="BackgroundImageFix"/>
<feBlend mode="normal" in="SourceGraphic" in2="BackgroundImageFix" result="shape"/>
<feGaussianBlur stdDeviation="25" result="effect1_foregroundBlur_2198_7303"/>
<feTurbulence type="fractalNoise" baseFrequency="1 1" stitchTiles="stitch" numOctaves="3" result="noise" seed="4973" />
<feColorMatrix in="noise" type="luminanceToAlpha" result="alphaNoise" />
<feComponentTransfer in="alphaNoise" result="coloredNoise1">
<feFuncA type="discrete" tableValues="1 1 1 1 1 1 1 1 1 1 1 1 1 1 1 1 1 1 1 1 1 1 1 1 1 1 1 1 1 1 1 1 1 1 1 1 1 1 1 1 1 1 1 1 1 1 1 1 1 1 1 0 0 0 0 0 0 0 0 0 0 0 0 0 0 0 0 0 0 0 0 0 0 0 0 0 0 0 0 0 0 0 0 0 0 0 0 0 0 0 0 0 0 0 0 0 0 0 0 0 "/>
</feComponentTransfer>
<feComposite operator="in" in2="effect1_foregroundBlur_2198_7303" in="coloredNoise1" result="noise1Clipped" />
<feFlood flood-color="rgba(0, 0, 0, 0.68)" result="color1Flood" />
<feComposite operator="in" in2="noise1Clipped" in="color1Flood" result="color1" />
<feMerge result="effect2_noise_2198_7303">
<feMergeNode in="effect1_foregroundBlur_2198_7303" />
<feMergeNode in="color1" />
</feMerge>
</filter>
<filter id="filter1_fn_2198_7303" x="-232.846" y="812.332" width="656.846" height="657.794" filterUnits="userSpaceOnUse" color-interpolation-filters="sRGB">
<feFlood flood-opacity="0" result="BackgroundImageFix"/>
<feBlend mode="normal" in="SourceGraphic" in2="BackgroundImageFix" result="shape"/>
<feGaussianBlur stdDeviation="25" result="effect1_foregroundBlur_2198_7303"/>
<feTurbulence type="fractalNoise" baseFrequency="1 1" stitchTiles="stitch" numOctaves="3" result="noise" seed="4973" />
<feColorMatrix in="noise" type="luminanceToAlpha" result="alphaNoise" />
<feComponentTransfer in="alphaNoise" result="coloredNoise1">
<feFuncA type="discrete" tableValues="1 1 1 1 1 1 1 1 1 1 1 1 1 1 1 1 1 1 1 1 1 1 1 1 1 1 1 1 1 1 1 1 1 1 1 1 1 1 1 1 1 1 1 1 1 1 1 1 1 1 1 0 0 0 0 0 0 0 0 0 0 0 0 0 0 0 0 0 0 0 0 0 0 0 0 0 0 0 0 0 0 0 0 0 0 0 0 0 0 0 0 0 0 0 0 0 0 0 0 0 "/>
</feComponentTransfer>
<feComposite operator="in" in2="effect1_foregroundBlur_2198_7303" in="coloredNoise1" result="noise1Clipped" />
<feFlood flood-color="rgba(0, 0, 0, 0.68)" result="color1Flood" />
<feComposite operator="in" in2="noise1Clipped" in="color1Flood" result="color1" />
<feMerge result="effect2_noise_2198_7303">
<feMergeNode in="effect1_foregroundBlur_2198_7303" />
<feMergeNode in="color1" />
</feMerge>
</filter>
<filter id="filter2_fn_2198_7303" x="1442.41" y="1178.49" width="1064.8" height="1064.8" filterUnits="userSpaceOnUse" color-interpolation-filters="sRGB">
<feFlood flood-opacity="0" result="BackgroundImageFix"/>
<feBlend mode="normal" in="SourceGraphic" in2="BackgroundImageFix" result="shape"/>
<feGaussianBlur stdDeviation="25" result="effect1_foregroundBlur_2198_7303"/>
<feTurbulence type="fractalNoise" baseFrequency="1 1" stitchTiles="stitch" numOctaves="3" result="noise" seed="4973" />
<feColorMatrix in="noise" type="luminanceToAlpha" result="alphaNoise" />
<feComponentTransfer in="alphaNoise" result="coloredNoise1">
<feFuncA type="discrete" tableValues="1 1 1 1 1 1 1 1 1 1 1 1 1 1 1 1 1 1 1 1 1 1 1 1 1 1 1 1 1 1 1 1 1 1 1 1 1 1 1 1 1 1 1 1 1 1 1 1 1 1 1 0 0 0 0 0 0 0 0 0 0 0 0 0 0 0 0 0 0 0 0 0 0 0 0 0 0 0 0 0 0 0 0 0 0 0 0 0 0 0 0 0 0 0 0 0 0 0 0 0 "/>
</feComponentTransfer>
<feComposite operator="in" in2="effect1_foregroundBlur_2198_7303" in="coloredNoise1" result="noise1Clipped" />
<feFlood flood-color="rgba(0, 0, 0, 0.68)" result="color1Flood" />
<feComposite operator="in" in2="noise1Clipped" in="color1Flood" result="color1" />
<feMerge result="effect2_noise_2198_7303">
<feMergeNode in="effect1_foregroundBlur_2198_7303" />
<feMergeNode in="color1" />
</feMerge>
</filter>
<filter id="filter3_fn_2198_7303" x="1781.62" y="1536.48" width="788.975" height="790.148" filterUnits="userSpaceOnUse" color-interpolation-filters="sRGB">
<feFlood flood-opacity="0" result="BackgroundImageFix"/>
<feBlend mode="normal" in="SourceGraphic" in2="BackgroundImageFix" result="shape"/>
<feGaussianBlur stdDeviation="25" result="effect1_foregroundBlur_2198_7303"/>
<feTurbulence type="fractalNoise" baseFrequency="1 1" stitchTiles="stitch" numOctaves="3" result="noise" seed="4973" />
<feColorMatrix in="noise" type="luminanceToAlpha" result="alphaNoise" />
<feComponentTransfer in="alphaNoise" result="coloredNoise1">
<feFuncA type="discrete" tableValues="1 1 1 1 1 1 1 1 1 1 1 1 1 1 1 1 1 1 1 1 1 1 1 1 1 1 1 1 1 1 1 1 1 1 1 1 1 1 1 1 1 1 1 1 1 1 1 1 1 1 1 0 0 0 0 0 0 0 0 0 0 0 0 0 0 0 0 0 0 0 0 0 0 0 0 0 0 0 0 0 0 0 0 0 0 0 0 0 0 0 0 0 0 0 0 0 0 0 0 0 "/>
</feComponentTransfer>
<feComposite operator="in" in2="effect1_foregroundBlur_2198_7303" in="coloredNoise1" result="noise1Clipped" />
<feFlood flood-color="rgba(0, 0, 0, 0.68)" result="color1Flood" />
<feComposite operator="in" in2="noise1Clipped" in="color1Flood" result="color1" />
<feMerge result="effect2_noise_2198_7303">
<feMergeNode in="effect1_foregroundBlur_2198_7303" />
<feMergeNode in="color1" />
</feMerge>
</filter>
<linearGradient id="paint0_linear_2198_7303" x1="1920" y1="1230" x2="0" y2="1230" gradientUnits="userSpaceOnUse">
<stop stop-color="#3D3739"/>
<stop offset="0.5"/>
<stop offset="1" stop-color="#3D393A"/>
</linearGradient>
<radialGradient id="paint1_radial_2198_7303" cx="0" cy="0" r="1" gradientUnits="userSpaceOnUse" gradientTransform="translate(-67.1131 962.887) rotate(90) scale(389.887)">
<stop stop-color="#BE3856" stop-opacity="0.3"/>
<stop offset="1" stop-color="#BE3856" stop-opacity="0"/>
</radialGradient>
<radialGradient id="paint2_radial_2198_7303" cx="0" cy="0" r="1" gradientUnits="userSpaceOnUse" gradientTransform="translate(95.5772 1141.23) rotate(90) scale(278.897 278.423)">
<stop stop-color="white" stop-opacity="0.1"/>
<stop offset="1" stop-color="white" stop-opacity="0"/>
</radialGradient>
<radialGradient id="paint3_radial_2198_7303" cx="0" cy="0" r="1" gradientUnits="userSpaceOnUse" gradientTransform="translate(1974.81 1710.89) rotate(90) scale(482.399)">
<stop stop-color="#BE3856" stop-opacity="0.3"/>
<stop offset="1" stop-color="#BE3856" stop-opacity="0"/>
</radialGradient>
<radialGradient id="paint4_radial_2198_7303" cx="0" cy="0" r="1" gradientUnits="userSpaceOnUse" gradientTransform="translate(2176.1 1931.55) rotate(90) scale(345.074 344.487)">
<stop stop-color="white" stop-opacity="0.1"/>
<stop offset="1" stop-color="white" stop-opacity="0"/>
</radialGradient>
<clipPath id="clip0_2198_7303">
<rect width="1920" height="2460" fill="white"/>
</clipPath>
</defs>
</svg>
