<svg width="1920" height="3052" viewBox="0 0 1920 3052" fill="none" xmlns="http://www.w3.org/2000/svg">
<g clip-path="url(#clip0_2198_6543)">
<rect width="1920" height="3052" fill="url(#paint0_linear_2198_6543)"/>
<g filter="url(#filter0_fn_2198_6543)">
<circle cx="-8.72418" cy="1263.28" r="624.276" fill="url(#paint1_radial_2198_6543)"/>
</g>
<g filter="url(#filter1_fn_2198_6543)">
<ellipse cx="251.772" cy="1548.83" rx="445.803" ry="446.562" fill="url(#paint2_radial_2198_6543)"/>
</g>
<g filter="url(#filter2_fn_2198_6543)">
<circle cx="2129.47" cy="2499.12" r="624.276" transform="rotate(-180 2129.47 2499.12)" fill="url(#paint3_radial_2198_6543)"/>
</g>
<g filter="url(#filter3_fn_2198_6543)">
<ellipse cx="1868.98" cy="2213.56" rx="445.803" ry="446.562" transform="rotate(-180 1868.98 2213.56)" fill="url(#paint4_radial_2198_6543)"/>
</g>
<g filter="url(#filter4_fn_2198_6543)">
<circle cx="1974.81" cy="970.893" r="482.399" fill="url(#paint5_radial_2198_6543)"/>
</g>
<g filter="url(#filter5_fn_2198_6543)">
<ellipse cx="2176.1" cy="1191.55" rx="344.487" ry="345.074" fill="url(#paint6_radial_2198_6543)"/>
</g>
<path d="M2812.64 928.264C2716.26 604.366 2668.69 208.16 2275.59 232.294C1406.11 285.677 1524.84 1105.15 1781.88 1033.31C2259.62 899.79 2049.25 1075.72 2435.66 1384.31C2822.08 1692.89 2933.12 1333.14 2812.64 928.264Z" stroke="white" stroke-opacity="0.1" stroke-width="3"/>
<path d="M2786.91 930.555C2697.66 612.329 2657.24 224.143 2272.45 241.686C1421.35 280.49 1524.82 1083.69 1777.3 1017.39C2246.55 894.188 2038.11 1062.99 2411.23 1370.71C2784.35 1678.44 2898.49 1328.34 2786.91 930.555Z" stroke="white" stroke-opacity="0.1" stroke-width="3"/>
<path d="M2761.69 932.502C2679.35 620.089 2645.84 240.048 2269.46 251.269C1436.98 276.087 1525.75 1062.73 1773.55 1001.83C2234.09 888.634 2027.76 1050.42 2387.72 1356.93C2747.67 1663.45 2864.62 1323.02 2761.69 932.502Z" stroke="white" stroke-opacity="0.1" stroke-width="3"/>
<path d="M2737 934.116C2661.37 627.653 2634.48 255.876 2266.63 261.044C1452.99 272.473 1527.59 1042.31 1770.6 986.629C2222.26 883.139 2018.2 1038.01 2365.12 1342.98C2712.04 1647.96 2831.53 1317.2 2737 934.116Z" stroke="white" stroke-opacity="0.1" stroke-width="3"/>
<path d="M2712.82 935.41C2643.7 635.029 2623.16 271.629 2263.93 271.014C1469.35 269.655 1530.34 1022.44 1768.46 971.813C2211.03 877.719 2009.42 1025.79 2343.44 1328.89C2677.47 1631.99 2799.23 1310.89 2712.82 935.41Z" stroke="white" stroke-opacity="0.1" stroke-width="3"/>
<path d="M2689.18 936.397C2626.35 642.225 2611.9 287.307 2261.37 281.184C1486.04 267.639 1533.98 1003.14 1767.12 957.396C2200.42 872.386 2001.41 1013.77 2322.69 1314.67C2643.97 1615.57 2767.72 1304.11 2689.18 936.397Z" stroke="white" stroke-opacity="0.1" stroke-width="3"/>
<path d="M2666.07 937.089C2609.32 649.249 2600.68 302.912 2258.94 291.554C1503.05 266.43 1538.49 984.421 1766.55 943.398C2190.42 867.155 1994.17 1001.97 2302.86 1300.35C2611.55 1598.72 2737.01 1296.89 2666.07 937.089Z" stroke="white" stroke-opacity="0.1" stroke-width="3"/>
<path d="M2643.51 937.5C2592.62 656.108 2589.52 318.446 2256.64 302.128C1520.35 266.034 1543.86 966.311 1766.76 929.834C2181.02 862.039 1987.68 990.413 2283.94 1285.94C2580.2 1581.47 2707.11 1289.24 2643.51 937.5Z" stroke="white" stroke-opacity="0.1" stroke-width="3"/>
<path d="M2621.49 937.643C2576.25 662.81 2578.41 333.91 2254.46 312.908C1537.93 266.456 1550.08 948.825 1767.72 916.721C2172.22 857.052 1981.96 979.11 2265.95 1271.48C2549.95 1563.84 2678.04 1281.18 2621.49 937.643Z" stroke="white" stroke-opacity="0.1" stroke-width="3"/>
<path d="M2600.02 937.53C2560.2 669.363 2567.36 349.304 2252.4 323.896C1555.76 267.698 1557.12 931.981 1769.43 904.074C2164.01 852.207 1976.97 968.079 2248.88 1256.97C2520.79 1545.86 2649.79 1272.74 2600.02 937.53Z" stroke="white" stroke-opacity="0.1" stroke-width="3"/>
<path d="M2579.11 937.176C2544.5 675.776 2556.36 364.631 2250.45 335.096C1573.83 269.767 1564.97 915.797 1771.87 891.912C2156.4 847.519 1972.72 957.336 2232.73 1242.45C2492.73 1527.56 2622.37 1263.93 2579.11 937.176Z" stroke="white" stroke-opacity="0.1" stroke-width="3"/>
<path d="M2558.75 936.594C2529.12 682.057 2545.42 379.892 2248.61 346.508C1592.12 272.666 1573.61 900.29 1775.03 880.248C2149.37 842.999 1969.2 946.898 2217.49 1227.93C2465.78 1508.96 2595.79 1254.77 2558.75 936.594Z" stroke="white" stroke-opacity="0.1" stroke-width="3"/>
<path d="M2538.97 935.796C2514.1 688.211 2534.54 395.088 2246.88 358.133C1610.61 276.395 1583.04 885.475 1778.9 869.098C2142.92 838.66 1966.41 936.78 2203.17 1213.43C2439.94 1490.09 2570.05 1245.28 2538.97 935.796Z" stroke="white" stroke-opacity="0.1" stroke-width="3"/>
<path d="M2519.75 934.797C2499.41 694.25 2523.72 410.221 2245.24 369.977C1629.27 280.961 1593.22 871.371 1783.46 858.478C2137.05 834.518 1964.32 926.999 2189.76 1198.98C2415.21 1470.97 2545.17 1235.48 2519.75 934.797Z" stroke="white" stroke-opacity="0.1" stroke-width="3"/>
<path d="M2501.1 933.61C2485.06 700.18 2512.96 425.293 2243.69 382.038C1648.1 286.363 1604.13 857.991 1788.71 848.403C2131.74 830.582 1962.93 917.57 2177.27 1184.6C2391.6 1451.63 2521.14 1225.4 2501.1 933.61Z" stroke="white" stroke-opacity="0.1" stroke-width="3"/>
<path d="M2483.02 932.248C2471.06 706.01 2502.26 440.305 2242.22 394.319C1667.06 292.605 1615.77 845.353 1794.62 838.886C2127 826.867 1962.24 908.508 2165.67 1170.3C2369.11 1432.09 2497.98 1215.05 2483.02 932.248Z" stroke="white" stroke-opacity="0.1" stroke-width="3"/>
<path d="M2465.53 930.726C2457.4 711.747 2491.63 455.258 2240.84 406.821C1686.14 299.687 1628.12 833.472 1801.18 829.943C2122.82 823.385 1962.23 899.83 2154.98 1156.11C2347.74 1412.39 2475.68 1204.45 2465.53 930.726Z" stroke="white" stroke-opacity="0.1" stroke-width="3"/>
<path d="M2448.61 929.057C2444.09 717.401 2481.07 470.154 2239.54 419.547C1705.32 307.611 1641.14 822.361 1808.38 821.587C2119.18 820.149 1962.89 891.549 2145.19 1142.05C2327.49 1392.55 2454.25 1193.63 2448.61 929.057Z" stroke="white" stroke-opacity="0.1" stroke-width="3"/>
<path d="M2432.27 927.255C2431.14 722.979 2470.57 484.996 2238.31 432.497C1724.58 316.377 1654.84 812.036 1816.2 813.832C2116.09 817.17 1964.21 883.682 2136.29 1128.14C2308.37 1372.6 2433.69 1182.6 2432.27 927.255Z" stroke="white" stroke-opacity="0.1" stroke-width="3"/>
<path d="M2416.52 925.333C2418.53 728.489 2460.14 499.783 2237.14 445.672C1743.9 325.985 1669.17 802.509 1824.63 806.691C2113.54 814.461 1966.18 876.24 2128.28 1114.4C2290.37 1352.55 2414.02 1171.39 2416.52 925.333Z" stroke="white" stroke-opacity="0.1" stroke-width="3"/>
<path d="M2401.35 923.306C2406.27 733.94 2449.77 514.52 2236.03 459.074C1763.26 336.437 1684.13 793.797 1833.64 800.177C2111.51 812.035 1968.79 869.242 2121.14 1100.84C2273.5 1332.45 2395.21 1160.01 2401.35 923.306Z" stroke="white" stroke-opacity="0.1" stroke-width="3"/>
<path d="M2386.78 921.187C2394.37 739.341 2439.48 529.206 2234.98 472.704C1782.65 347.73 1699.7 785.91 1843.24 794.303C2110.01 809.902 1972.03 862.699 2114.89 1087.5C2257.75 1312.31 2377.29 1148.49 2386.78 921.187Z" stroke="white" stroke-opacity="0.1" stroke-width="3"/>
<path d="M2372.79 918.989C2382.82 744.698 2429.26 543.843 2233.97 486.562C1802.03 359.863 1715.85 778.861 1853.39 789.08C2109.02 808.074 1975.89 856.625 2109.51 1074.39C2243.12 1292.15 2360.25 1136.85 2372.79 918.989Z" stroke="white" stroke-opacity="0.1" stroke-width="3"/>
<path d="M2359.39 916.728C2371.62 750.022 2419.11 558.435 2233.01 500.649C1821.39 372.837 1732.57 772.663 1864.09 784.522C2108.53 806.563 1980.35 851.034 2104.98 1061.53C2229.62 1272.02 2344.1 1125.11 2359.39 916.728Z" stroke="white" stroke-opacity="0.1" stroke-width="3"/>
<path d="M2346.58 914.416C2360.77 755.32 2409.04 572.981 2232.09 514.967C1840.72 386.647 1749.83 767.328 1875.32 780.64C2108.55 805.38 1985.4 845.94 2101.32 1048.93C2217.24 1251.93 2328.83 1113.29 2346.58 914.416Z" stroke="white" stroke-opacity="0.1" stroke-width="3"/>
<path d="M2334.35 912.068C2350.28 760.6 2399.03 587.484 2231.2 529.514C1859.99 401.293 1767.61 762.866 1887.06 777.444C2109.05 804.536 1991.03 841.355 2098.5 1036.63C2205.97 1231.91 2314.45 1101.4 2334.35 912.068Z" stroke="white" stroke-opacity="0.1" stroke-width="3"/>
<path d="M2322.72 909.698C2340.14 765.87 2389.11 601.945 2230.34 544.292C1879.18 416.771 1785.9 759.29 1899.29 774.945C2110.03 804.042 1997.22 837.292 2096.52 1024.64C2195.81 1211.98 2300.95 1089.48 2322.72 909.698Z" stroke="white" stroke-opacity="0.1" stroke-width="3"/>
<path d="M2311.68 907.318C2330.35 771.139 2379.26 616.368 2229.5 559.301C1898.27 433.079 1804.66 756.608 1912 773.155C2111.49 803.91 2003.97 833.764 2095.37 1012.97C2186.77 1192.18 2288.34 1077.54 2311.68 907.318Z" stroke="white" stroke-opacity="0.1" stroke-width="3"/>
<path d="M2301.23 904.944C2320.92 776.416 2369.48 630.753 2228.68 574.543C1917.25 450.214 1823.88 754.832 1925.17 772.084C2113.41 804.149 2011.26 830.784 2095.05 1001.65C2178.83 1172.52 2276.61 1065.6 2301.23 904.944Z" stroke="white" stroke-opacity="0.1" stroke-width="3"/>
<path d="M2291.36 902.59C2311.83 781.709 2359.79 645.102 2227.87 590.015C1936.09 468.171 1843.54 753.971 1938.78 771.741C2115.78 804.769 2019.08 828.362 2095.53 990.698C2171.99 1153.03 2265.77 1053.69 2291.36 902.59Z" stroke="white" stroke-opacity="0.1" stroke-width="3"/>
<path d="M2282.08 900.267C2303.1 787.024 2350.17 659.416 2227.07 605.718C1954.78 486.945 1863.61 754.032 1952.81 772.135C2118.59 805.781 2027.41 826.509 2096.82 980.128C2166.24 1133.75 2255.8 1041.82 2282.08 900.267Z" stroke="white" stroke-opacity="0.1" stroke-width="3"/>
<path d="M2273.39 897.991C2294.72 792.371 2340.63 673.699 2226.26 621.653C1973.3 506.533 1884.08 755.027 1967.25 773.277C2121.84 807.195 2036.23 825.24 2098.91 969.962C2161.58 1114.68 2246.72 1030.02 2273.39 897.991Z" stroke="white" stroke-opacity="0.1" stroke-width="3"/>
<path d="M2265.27 895.775C2286.68 797.759 2331.17 687.952 2225.45 637.818C1991.62 526.93 1904.91 756.961 1982.08 775.173C2125.51 809.021 2045.54 824.562 2101.77 960.216C2158.01 1095.87 2238.51 1018.3 2265.27 895.775Z" stroke="white" stroke-opacity="0.1" stroke-width="3"/>
<path d="M2257.75 893.633C2279 803.194 2321.79 702.176 2224.63 654.214C2009.74 548.129 1926.1 759.843 1997.29 777.833C2129.6 811.267 2055.33 824.489 2105.42 950.909C2155.51 1077.33 2231.18 1006.68 2257.75 893.633Z" stroke="white" stroke-opacity="0.1" stroke-width="3"/>
<g filter="url(#filter6_fn_2198_6543)">
<circle cx="-47.0575" cy="2994.65" r="482.399" transform="rotate(-180 -47.0575 2994.65)" fill="url(#paint7_radial_2198_6543)"/>
</g>
<g filter="url(#filter7_fn_2198_6543)">
<ellipse cx="-248.352" cy="2773.99" rx="344.487" ry="345.074" transform="rotate(-180 -248.352 2773.99)" fill="url(#paint8_radial_2198_6543)"/>
</g>
<path d="M-884.888 3037.28C-788.509 3361.18 -740.941 3757.39 -347.838 3733.25C521.648 3679.87 402.919 2860.4 145.87 2932.24C-331.868 3065.76 -121.496 2889.82 -507.909 2581.24C-894.322 2272.66 -1005.36 2632.41 -884.888 3037.28Z" stroke="white" stroke-opacity="0.1" stroke-width="3"/>
<path d="M-859.159 3034.99C-769.902 3353.22 -729.491 3741.4 -344.699 3723.86C506.405 3685.06 402.929 2881.86 150.45 2948.15C-318.793 3071.36 -110.356 2902.55 -483.478 2594.83C-856.6 2287.11 -970.732 2637.21 -859.159 3034.99Z" stroke="white" stroke-opacity="0.1" stroke-width="3"/>
<path d="M-833.94 3033.04C-751.601 3345.46 -718.083 3725.5 -341.71 3714.28C490.773 3689.46 402.007 2902.81 154.209 2963.72C-306.337 3076.91 -100.006 2915.13 -459.961 2608.61C-819.917 2302.1 -936.865 2642.53 -833.94 3033.04Z" stroke="white" stroke-opacity="0.1" stroke-width="3"/>
<path d="M-809.244 3031.43C-733.616 3337.89 -706.724 3709.67 -338.871 3704.5C474.765 3693.07 400.163 2923.23 157.149 2978.92C-294.502 3082.41 -90.4456 2927.54 -437.367 2622.56C-784.289 2317.59 -903.778 2648.35 -809.244 3031.43Z" stroke="white" stroke-opacity="0.1" stroke-width="3"/>
<path d="M-785.068 3030.14C-715.944 3330.52 -695.408 3693.92 -336.171 3694.53C458.409 3695.89 397.416 2943.11 159.29 2993.73C-283.277 3087.83 -81.6613 2939.76 -415.69 2636.66C-749.718 2333.55 -871.473 2654.66 -785.068 3030.14Z" stroke="white" stroke-opacity="0.1" stroke-width="3"/>
<path d="M-761.426 3029.15C-698.595 3323.32 -684.146 3678.24 -333.613 3684.36C441.715 3697.91 393.777 2962.41 160.635 3008.15C-272.668 3093.16 -73.6543 2951.78 -394.936 2650.88C-716.218 2349.98 -839.965 2661.44 -761.426 3029.15Z" stroke="white" stroke-opacity="0.1" stroke-width="3"/>
<path d="M-738.318 3028.46C-681.567 3316.3 -672.931 3662.63 -331.185 3673.99C424.709 3699.12 389.264 2981.13 161.201 3022.15C-262.664 3098.39 -66.4125 2963.58 -375.102 2665.2C-683.792 2366.82 -809.257 2668.66 -738.318 3028.46Z" stroke="white" stroke-opacity="0.1" stroke-width="3"/>
<path d="M-715.752 3028.05C-664.865 3309.44 -661.768 3647.1 -328.884 3663.42C407.407 3699.51 383.892 2999.24 160.997 3035.71C-253.264 3103.51 -59.9308 2975.13 -356.19 2679.61C-652.449 2384.08 -779.361 2676.31 -715.752 3028.05Z" stroke="white" stroke-opacity="0.1" stroke-width="3"/>
<path d="M-693.732 3027.9C-648.491 3302.74 -650.659 3631.64 -326.707 3652.64C389.829 3699.09 377.676 3016.72 160.034 3048.83C-244.464 3108.49 -54.2018 2986.44 -338.198 2694.07C-622.195 2401.7 -750.283 2684.36 -693.732 3027.9Z" stroke="white" stroke-opacity="0.1" stroke-width="3"/>
<path d="M-672.264 3028.02C-632.45 3296.18 -639.605 3616.24 -324.647 3641.65C371.994 3697.85 370.634 3033.57 158.326 3061.47C-236.259 3113.34 -49.2179 2997.47 -321.127 2708.58C-593.037 2419.68 -722.031 2692.81 -672.264 3028.02Z" stroke="white" stroke-opacity="0.1" stroke-width="3"/>
<path d="M-651.352 3028.37C-616.743 3289.77 -628.607 3600.92 -322.699 3630.45C353.923 3695.78 362.782 3049.75 155.885 3073.64C-228.644 3118.03 -44.9708 3008.21 -304.975 2723.1C-564.979 2437.99 -694.612 2701.62 -651.352 3028.37Z" stroke="white" stroke-opacity="0.1" stroke-width="3"/>
<path d="M-630.997 3028.95C-601.371 3283.49 -617.664 3585.65 -320.858 3619.04C335.636 3692.88 354.139 3065.26 152.725 3085.3C-221.613 3122.55 -41.4505 3018.65 -289.737 2737.62C-538.024 2456.59 -668.031 2710.78 -630.997 3028.95Z" stroke="white" stroke-opacity="0.1" stroke-width="3"/>
<path d="M-611.211 3029.75C-586.341 3277.34 -606.785 3570.46 -319.122 3607.41C317.147 3689.15 344.716 3080.07 148.853 3096.45C-215.167 3126.89 -38.6541 3028.77 -275.419 2752.11C-512.184 2475.46 -642.299 2720.27 -611.211 3029.75Z" stroke="white" stroke-opacity="0.1" stroke-width="3"/>
<path d="M-591.991 3030.75C-571.651 3271.3 -595.964 3555.33 -317.481 3595.57C298.482 3684.59 334.538 3094.18 144.29 3107.07C-209.293 3131.03 -36.5666 3038.55 -262.011 2766.56C-487.455 2494.58 -617.416 2730.07 -591.991 3030.75Z" stroke="white" stroke-opacity="0.1" stroke-width="3"/>
<path d="M-573.343 3031.94C-557.305 3265.37 -585.205 3540.25 -315.933 3583.51C279.659 3679.18 323.619 3107.56 139.047 3117.14C-203.988 3134.96 -35.181 3047.98 -249.512 2780.95C-463.844 2513.92 -593.39 2740.15 -573.343 3031.94Z" stroke="white" stroke-opacity="0.1" stroke-width="3"/>
<path d="M-555.268 3033.3C-543.303 3259.54 -574.51 3525.24 -314.471 3571.23C260.696 3672.94 311.979 3120.19 133.138 3126.66C-199.247 3138.68 -34.4872 3057.04 -237.919 2795.25C-441.352 2533.45 -570.225 2750.5 -555.268 3033.3Z" stroke="white" stroke-opacity="0.1" stroke-width="3"/>
<path d="M-537.771 3034.82C-529.647 3253.8 -563.878 3510.29 -313.091 3558.73C241.614 3665.86 299.636 3132.08 126.577 3135.6C-195.062 3142.16 -34.4755 3065.72 -227.229 2809.44C-419.981 2553.15 -547.926 2761.1 -537.771 3034.82Z" stroke="white" stroke-opacity="0.1" stroke-width="3"/>
<path d="M-520.854 3036.49C-516.34 3248.15 -553.312 3495.39 -311.786 3546C222.433 3657.94 286.609 3143.19 119.378 3143.96C-191.428 3145.4 -35.1357 3074 -217.435 2823.5C-399.735 2573 -526.496 2771.92 -520.854 3036.49Z" stroke="white" stroke-opacity="0.1" stroke-width="3"/>
<path d="M-504.519 3038.29C-503.382 3242.57 -542.813 3480.55 -310.553 3533.05C203.172 3649.17 272.918 3153.51 111.558 3151.71C-188.337 3148.38 -36.457 3081.87 -208.535 2837.41C-380.613 2592.95 -505.94 2782.95 -504.519 3038.29Z" stroke="white" stroke-opacity="0.1" stroke-width="3"/>
<path d="M-488.77 3040.21C-490.776 3237.06 -532.384 3465.76 -309.387 3519.87C183.849 3639.56 258.579 3163.04 103.128 3158.86C-185.784 3151.09 -38.4307 3089.31 -200.524 2851.15C-362.617 2613 -486.261 2794.16 -488.77 3040.21Z" stroke="white" stroke-opacity="0.1" stroke-width="3"/>
<path d="M-473.6 3042.24C-478.516 3231.61 -522.017 3451.03 -308.275 3506.47C164.492 3629.11 243.621 3171.75 94.1128 3165.37C-183.755 3153.51 -41.0378 3096.31 -193.39 2864.7C-345.741 2633.1 -467.456 2805.53 -473.6 3042.24Z" stroke="white" stroke-opacity="0.1" stroke-width="3"/>
<path d="M-459.024 3044.36C-466.613 3226.21 -511.727 3436.34 -307.224 3492.84C145.108 3617.82 228.052 3179.64 84.5156 3171.24C-182.254 3155.64 -44.2784 3102.85 -187.137 2878.04C-329.995 2653.24 -449.537 2817.05 -459.024 3044.36Z" stroke="white" stroke-opacity="0.1" stroke-width="3"/>
<path d="M-445.034 3046.56C-455.061 3220.85 -501.506 3421.7 -306.22 3478.99C125.725 3605.68 211.9 3186.69 74.3602 3176.47C-181.264 3157.47 -48.1331 3108.92 -181.752 2891.16C-315.37 2673.39 -432.5 2828.69 -445.034 3046.56Z" stroke="white" stroke-opacity="0.1" stroke-width="3"/>
<path d="M-431.633 3048.82C-443.862 3215.52 -491.357 3407.11 -305.26 3464.9C106.361 3592.71 195.183 3192.88 63.6608 3181.02C-180.78 3158.98 -52.5919 3114.51 -177.23 2904.02C-301.867 2693.53 -416.346 2840.44 -431.633 3048.82Z" stroke="white" stroke-opacity="0.1" stroke-width="3"/>
<path d="M-418.821 3051.13C-433.016 3210.23 -481.282 3392.57 -304.338 3450.58C87.0354 3578.9 177.923 3198.22 52.4339 3184.91C-180.794 3160.17 -57.6424 3119.61 -173.563 2916.61C-289.483 2713.62 -401.078 2852.26 -418.821 3051.13Z" stroke="white" stroke-opacity="0.1" stroke-width="3"/>
<path d="M-406.6 3053.48C-422.523 3204.95 -471.28 3378.06 -303.449 3436.03C67.7672 3564.25 160.141 3202.68 40.6962 3188.1C-181.297 3161.01 -63.2722 3124.19 -170.744 2928.92C-278.215 2733.64 -386.695 2864.14 -406.6 3053.48Z" stroke="white" stroke-opacity="0.1" stroke-width="3"/>
<path d="M-394.968 3055.85C-412.384 3199.68 -461.353 3363.6 -302.588 3421.25C48.5762 3548.78 141.857 3206.26 28.4644 3190.6C-182.28 3161.5 -69.4683 3128.25 -168.764 2940.91C-268.06 2753.56 -373.198 2876.07 -394.968 3055.85Z" stroke="white" stroke-opacity="0.1" stroke-width="3"/>
<path d="M-383.925 3058.23C-402.597 3194.41 -451.502 3349.18 -301.75 3406.25C29.4818 3532.47 123.093 3208.94 15.7557 3192.39C-183.735 3161.64 -76.2177 3131.78 -167.616 2952.58C-259.015 2773.37 -360.586 2888 -383.925 3058.23Z" stroke="white" stroke-opacity="0.1" stroke-width="3"/>
<path d="M-373.472 3060.6C-393.162 3189.13 -441.728 3334.79 -300.927 3391C10.5033 3515.33 103.871 3210.71 2.58729 3193.46C-185.653 3161.4 -83.5071 3134.76 -167.291 2963.9C-251.074 2793.03 -348.858 2899.94 -373.472 3060.6Z" stroke="white" stroke-opacity="0.1" stroke-width="3"/>
<path d="M-363.604 3062.96C-384.077 3183.84 -432.029 3320.44 -300.115 3375.53C-8.3381 3497.38 84.2146 3211.58 -11.0213 3193.81C-188.022 3160.78 -91.3211 3137.18 -167.776 2974.85C-244.231 2812.51 -338.012 2911.86 -363.604 3062.96Z" stroke="white" stroke-opacity="0.1" stroke-width="3"/>
<path d="M-354.324 3065.28C-375.345 3178.52 -422.411 3306.13 -299.309 3359.83C-27.0272 3478.6 64.142 3211.51 -25.0564 3193.41C-190.836 3159.77 -99.6495 3139.04 -169.067 2985.42C-238.485 2831.8 -328.049 2923.73 -354.324 3065.28Z" stroke="white" stroke-opacity="0.1" stroke-width="3"/>
<path d="M-345.632 3067.56C-366.964 3173.18 -412.873 3291.85 -298.507 3343.89C-45.5451 3459.01 43.6755 3210.52 -39.5001 3192.27C-194.086 3158.35 -108.479 3140.31 -171.153 2995.59C-233.828 2850.86 -318.967 2935.53 -345.632 3067.56Z" stroke="white" stroke-opacity="0.1" stroke-width="3"/>
<path d="M-337.521 3069.77C-358.93 3167.79 -403.412 3277.59 -297.697 3327.73C-63.8689 3438.62 22.8412 3208.59 -54.3305 3190.37C-197.757 3156.53 -117.79 3140.98 -174.021 3005.33C-230.251 2869.68 -310.759 2947.25 -337.521 3069.77Z" stroke="white" stroke-opacity="0.1" stroke-width="3"/>
<path d="M-329.991 3071.91C-351.244 3162.35 -394.032 3263.37 -296.876 3311.33C-81.9817 3417.42 1.65972 3205.7 -69.5313 3187.71C-201.843 3154.28 -127.571 3141.06 -177.66 3014.64C-227.749 2888.22 -303.426 2958.87 -329.991 3071.91Z" stroke="white" stroke-opacity="0.1" stroke-width="3"/>
</g>
<defs>
<filter id="filter0_fn_2198_6543" x="-683" y="589" width="1348.55" height="1348.55" filterUnits="userSpaceOnUse" color-interpolation-filters="sRGB">
<feFlood flood-opacity="0" result="BackgroundImageFix"/>
<feBlend mode="normal" in="SourceGraphic" in2="BackgroundImageFix" result="shape"/>
<feGaussianBlur stdDeviation="25" result="effect1_foregroundBlur_2198_6543"/>
<feTurbulence type="fractalNoise" baseFrequency="1 1" stitchTiles="stitch" numOctaves="3" result="noise" seed="4973" />
<feColorMatrix in="noise" type="luminanceToAlpha" result="alphaNoise" />
<feComponentTransfer in="alphaNoise" result="coloredNoise1">
<feFuncA type="discrete" tableValues="1 1 1 1 1 1 1 1 1 1 1 1 1 1 1 1 1 1 1 1 1 1 1 1 1 1 1 1 1 1 1 1 1 1 1 1 1 1 1 1 1 1 1 1 1 1 1 1 1 1 1 0 0 0 0 0 0 0 0 0 0 0 0 0 0 0 0 0 0 0 0 0 0 0 0 0 0 0 0 0 0 0 0 0 0 0 0 0 0 0 0 0 0 0 0 0 0 0 0 0 "/>
</feComponentTransfer>
<feComposite operator="in" in2="effect1_foregroundBlur_2198_6543" in="coloredNoise1" result="noise1Clipped" />
<feFlood flood-color="rgba(0, 0, 0, 0.68)" result="color1Flood" />
<feComposite operator="in" in2="noise1Clipped" in="color1Flood" result="color1" />
<feMerge result="effect2_noise_2198_6543">
<feMergeNode in="effect1_foregroundBlur_2198_6543" />
<feMergeNode in="color1" />
</feMerge>
</filter>
<filter id="filter1_fn_2198_6543" x="-244.031" y="1052.27" width="991.605" height="993.125" filterUnits="userSpaceOnUse" color-interpolation-filters="sRGB">
<feFlood flood-opacity="0" result="BackgroundImageFix"/>
<feBlend mode="normal" in="SourceGraphic" in2="BackgroundImageFix" result="shape"/>
<feGaussianBlur stdDeviation="25" result="effect1_foregroundBlur_2198_6543"/>
<feTurbulence type="fractalNoise" baseFrequency="1 1" stitchTiles="stitch" numOctaves="3" result="noise" seed="4973" />
<feColorMatrix in="noise" type="luminanceToAlpha" result="alphaNoise" />
<feComponentTransfer in="alphaNoise" result="coloredNoise1">
<feFuncA type="discrete" tableValues="1 1 1 1 1 1 1 1 1 1 1 1 1 1 1 1 1 1 1 1 1 1 1 1 1 1 1 1 1 1 1 1 1 1 1 1 1 1 1 1 1 1 1 1 1 1 1 1 1 1 1 0 0 0 0 0 0 0 0 0 0 0 0 0 0 0 0 0 0 0 0 0 0 0 0 0 0 0 0 0 0 0 0 0 0 0 0 0 0 0 0 0 0 0 0 0 0 0 0 0 "/>
</feComponentTransfer>
<feComposite operator="in" in2="effect1_foregroundBlur_2198_6543" in="coloredNoise1" result="noise1Clipped" />
<feFlood flood-color="rgba(0, 0, 0, 0.68)" result="color1Flood" />
<feComposite operator="in" in2="noise1Clipped" in="color1Flood" result="color1" />
<feMerge result="effect2_noise_2198_6543">
<feMergeNode in="effect1_foregroundBlur_2198_6543" />
<feMergeNode in="color1" />
</feMerge>
</filter>
<filter id="filter2_fn_2198_6543" x="1455.2" y="1824.84" width="1348.55" height="1348.55" filterUnits="userSpaceOnUse" color-interpolation-filters="sRGB">
<feFlood flood-opacity="0" result="BackgroundImageFix"/>
<feBlend mode="normal" in="SourceGraphic" in2="BackgroundImageFix" result="shape"/>
<feGaussianBlur stdDeviation="25" result="effect1_foregroundBlur_2198_6543"/>
<feTurbulence type="fractalNoise" baseFrequency="1 1" stitchTiles="stitch" numOctaves="3" result="noise" seed="4973" />
<feColorMatrix in="noise" type="luminanceToAlpha" result="alphaNoise" />
<feComponentTransfer in="alphaNoise" result="coloredNoise1">
<feFuncA type="discrete" tableValues="1 1 1 1 1 1 1 1 1 1 1 1 1 1 1 1 1 1 1 1 1 1 1 1 1 1 1 1 1 1 1 1 1 1 1 1 1 1 1 1 1 1 1 1 1 1 1 1 1 1 1 0 0 0 0 0 0 0 0 0 0 0 0 0 0 0 0 0 0 0 0 0 0 0 0 0 0 0 0 0 0 0 0 0 0 0 0 0 0 0 0 0 0 0 0 0 0 0 0 0 "/>
</feComponentTransfer>
<feComposite operator="in" in2="effect1_foregroundBlur_2198_6543" in="coloredNoise1" result="noise1Clipped" />
<feFlood flood-color="rgba(0, 0, 0, 0.68)" result="color1Flood" />
<feComposite operator="in" in2="noise1Clipped" in="color1Flood" result="color1" />
<feMerge result="effect2_noise_2198_6543">
<feMergeNode in="effect1_foregroundBlur_2198_6543" />
<feMergeNode in="color1" />
</feMerge>
</filter>
<filter id="filter3_fn_2198_6543" x="1373.18" y="1717" width="991.605" height="993.125" filterUnits="userSpaceOnUse" color-interpolation-filters="sRGB">
<feFlood flood-opacity="0" result="BackgroundImageFix"/>
<feBlend mode="normal" in="SourceGraphic" in2="BackgroundImageFix" result="shape"/>
<feGaussianBlur stdDeviation="25" result="effect1_foregroundBlur_2198_6543"/>
<feTurbulence type="fractalNoise" baseFrequency="1 1" stitchTiles="stitch" numOctaves="3" result="noise" seed="4973" />
<feColorMatrix in="noise" type="luminanceToAlpha" result="alphaNoise" />
<feComponentTransfer in="alphaNoise" result="coloredNoise1">
<feFuncA type="discrete" tableValues="1 1 1 1 1 1 1 1 1 1 1 1 1 1 1 1 1 1 1 1 1 1 1 1 1 1 1 1 1 1 1 1 1 1 1 1 1 1 1 1 1 1 1 1 1 1 1 1 1 1 1 0 0 0 0 0 0 0 0 0 0 0 0 0 0 0 0 0 0 0 0 0 0 0 0 0 0 0 0 0 0 0 0 0 0 0 0 0 0 0 0 0 0 0 0 0 0 0 0 0 "/>
</feComponentTransfer>
<feComposite operator="in" in2="effect1_foregroundBlur_2198_6543" in="coloredNoise1" result="noise1Clipped" />
<feFlood flood-color="rgba(0, 0, 0, 0.68)" result="color1Flood" />
<feComposite operator="in" in2="noise1Clipped" in="color1Flood" result="color1" />
<feMerge result="effect2_noise_2198_6543">
<feMergeNode in="effect1_foregroundBlur_2198_6543" />
<feMergeNode in="color1" />
</feMerge>
</filter>
<filter id="filter4_fn_2198_6543" x="1442.41" y="438.493" width="1064.8" height="1064.8" filterUnits="userSpaceOnUse" color-interpolation-filters="sRGB">
<feFlood flood-opacity="0" result="BackgroundImageFix"/>
<feBlend mode="normal" in="SourceGraphic" in2="BackgroundImageFix" result="shape"/>
<feGaussianBlur stdDeviation="25" result="effect1_foregroundBlur_2198_6543"/>
<feTurbulence type="fractalNoise" baseFrequency="1 1" stitchTiles="stitch" numOctaves="3" result="noise" seed="4973" />
<feColorMatrix in="noise" type="luminanceToAlpha" result="alphaNoise" />
<feComponentTransfer in="alphaNoise" result="coloredNoise1">
<feFuncA type="discrete" tableValues="1 1 1 1 1 1 1 1 1 1 1 1 1 1 1 1 1 1 1 1 1 1 1 1 1 1 1 1 1 1 1 1 1 1 1 1 1 1 1 1 1 1 1 1 1 1 1 1 1 1 1 0 0 0 0 0 0 0 0 0 0 0 0 0 0 0 0 0 0 0 0 0 0 0 0 0 0 0 0 0 0 0 0 0 0 0 0 0 0 0 0 0 0 0 0 0 0 0 0 0 "/>
</feComponentTransfer>
<feComposite operator="in" in2="effect1_foregroundBlur_2198_6543" in="coloredNoise1" result="noise1Clipped" />
<feFlood flood-color="rgba(0, 0, 0, 0.68)" result="color1Flood" />
<feComposite operator="in" in2="noise1Clipped" in="color1Flood" result="color1" />
<feMerge result="effect2_noise_2198_6543">
<feMergeNode in="effect1_foregroundBlur_2198_6543" />
<feMergeNode in="color1" />
</feMerge>
</filter>
<filter id="filter5_fn_2198_6543" x="1781.62" y="796.478" width="788.975" height="790.148" filterUnits="userSpaceOnUse" color-interpolation-filters="sRGB">
<feFlood flood-opacity="0" result="BackgroundImageFix"/>
<feBlend mode="normal" in="SourceGraphic" in2="BackgroundImageFix" result="shape"/>
<feGaussianBlur stdDeviation="25" result="effect1_foregroundBlur_2198_6543"/>
<feTurbulence type="fractalNoise" baseFrequency="1 1" stitchTiles="stitch" numOctaves="3" result="noise" seed="4973" />
<feColorMatrix in="noise" type="luminanceToAlpha" result="alphaNoise" />
<feComponentTransfer in="alphaNoise" result="coloredNoise1">
<feFuncA type="discrete" tableValues="1 1 1 1 1 1 1 1 1 1 1 1 1 1 1 1 1 1 1 1 1 1 1 1 1 1 1 1 1 1 1 1 1 1 1 1 1 1 1 1 1 1 1 1 1 1 1 1 1 1 1 0 0 0 0 0 0 0 0 0 0 0 0 0 0 0 0 0 0 0 0 0 0 0 0 0 0 0 0 0 0 0 0 0 0 0 0 0 0 0 0 0 0 0 0 0 0 0 0 0 "/>
</feComponentTransfer>
<feComposite operator="in" in2="effect1_foregroundBlur_2198_6543" in="coloredNoise1" result="noise1Clipped" />
<feFlood flood-color="rgba(0, 0, 0, 0.68)" result="color1Flood" />
<feComposite operator="in" in2="noise1Clipped" in="color1Flood" result="color1" />
<feMerge result="effect2_noise_2198_6543">
<feMergeNode in="effect1_foregroundBlur_2198_6543" />
<feMergeNode in="color1" />
</feMerge>
</filter>
<filter id="filter6_fn_2198_6543" x="-579.457" y="2462.25" width="1064.8" height="1064.8" filterUnits="userSpaceOnUse" color-interpolation-filters="sRGB">
<feFlood flood-opacity="0" result="BackgroundImageFix"/>
<feBlend mode="normal" in="SourceGraphic" in2="BackgroundImageFix" result="shape"/>
<feGaussianBlur stdDeviation="25" result="effect1_foregroundBlur_2198_6543"/>
<feTurbulence type="fractalNoise" baseFrequency="1 1" stitchTiles="stitch" numOctaves="3" result="noise" seed="4973" />
<feColorMatrix in="noise" type="luminanceToAlpha" result="alphaNoise" />
<feComponentTransfer in="alphaNoise" result="coloredNoise1">
<feFuncA type="discrete" tableValues="1 1 1 1 1 1 1 1 1 1 1 1 1 1 1 1 1 1 1 1 1 1 1 1 1 1 1 1 1 1 1 1 1 1 1 1 1 1 1 1 1 1 1 1 1 1 1 1 1 1 1 0 0 0 0 0 0 0 0 0 0 0 0 0 0 0 0 0 0 0 0 0 0 0 0 0 0 0 0 0 0 0 0 0 0 0 0 0 0 0 0 0 0 0 0 0 0 0 0 0 "/>
</feComponentTransfer>
<feComposite operator="in" in2="effect1_foregroundBlur_2198_6543" in="coloredNoise1" result="noise1Clipped" />
<feFlood flood-color="rgba(0, 0, 0, 0.68)" result="color1Flood" />
<feComposite operator="in" in2="noise1Clipped" in="color1Flood" result="color1" />
<feMerge result="effect2_noise_2198_6543">
<feMergeNode in="effect1_foregroundBlur_2198_6543" />
<feMergeNode in="color1" />
</feMerge>
</filter>
<filter id="filter7_fn_2198_6543" x="-642.84" y="2378.92" width="788.975" height="790.148" filterUnits="userSpaceOnUse" color-interpolation-filters="sRGB">
<feFlood flood-opacity="0" result="BackgroundImageFix"/>
<feBlend mode="normal" in="SourceGraphic" in2="BackgroundImageFix" result="shape"/>
<feGaussianBlur stdDeviation="25" result="effect1_foregroundBlur_2198_6543"/>
<feTurbulence type="fractalNoise" baseFrequency="1 1" stitchTiles="stitch" numOctaves="3" result="noise" seed="4973" />
<feColorMatrix in="noise" type="luminanceToAlpha" result="alphaNoise" />
<feComponentTransfer in="alphaNoise" result="coloredNoise1">
<feFuncA type="discrete" tableValues="1 1 1 1 1 1 1 1 1 1 1 1 1 1 1 1 1 1 1 1 1 1 1 1 1 1 1 1 1 1 1 1 1 1 1 1 1 1 1 1 1 1 1 1 1 1 1 1 1 1 1 0 0 0 0 0 0 0 0 0 0 0 0 0 0 0 0 0 0 0 0 0 0 0 0 0 0 0 0 0 0 0 0 0 0 0 0 0 0 0 0 0 0 0 0 0 0 0 0 0 "/>
</feComponentTransfer>
<feComposite operator="in" in2="effect1_foregroundBlur_2198_6543" in="coloredNoise1" result="noise1Clipped" />
<feFlood flood-color="rgba(0, 0, 0, 0.68)" result="color1Flood" />
<feComposite operator="in" in2="noise1Clipped" in="color1Flood" result="color1" />
<feMerge result="effect2_noise_2198_6543">
<feMergeNode in="effect1_foregroundBlur_2198_6543" />
<feMergeNode in="color1" />
</feMerge>
</filter>
<linearGradient id="paint0_linear_2198_6543" x1="1920" y1="1526" x2="0" y2="1526" gradientUnits="userSpaceOnUse">
<stop stop-color="#3D3739"/>
<stop offset="0.5"/>
<stop offset="1" stop-color="#3D393A"/>
</linearGradient>
<radialGradient id="paint1_radial_2198_6543" cx="0" cy="0" r="1" gradientUnits="userSpaceOnUse" gradientTransform="translate(-8.72418 1263.28) rotate(90) scale(624.276)">
<stop stop-color="#BE3856" stop-opacity="0.3"/>
<stop offset="1" stop-color="#BE3856" stop-opacity="0"/>
</radialGradient>
<radialGradient id="paint2_radial_2198_6543" cx="0" cy="0" r="1" gradientUnits="userSpaceOnUse" gradientTransform="translate(251.772 1548.83) rotate(90) scale(446.562 445.803)">
<stop stop-color="white" stop-opacity="0.1"/>
<stop offset="1" stop-color="white" stop-opacity="0"/>
</radialGradient>
<radialGradient id="paint3_radial_2198_6543" cx="0" cy="0" r="1" gradientUnits="userSpaceOnUse" gradientTransform="translate(2129.47 2499.12) rotate(90) scale(624.276)">
<stop stop-color="#BE3856" stop-opacity="0.3"/>
<stop offset="1" stop-color="#BE3856" stop-opacity="0"/>
</radialGradient>
<radialGradient id="paint4_radial_2198_6543" cx="0" cy="0" r="1" gradientUnits="userSpaceOnUse" gradientTransform="translate(1868.98 2213.56) rotate(90) scale(446.562 445.803)">
<stop stop-color="white" stop-opacity="0.1"/>
<stop offset="1" stop-color="white" stop-opacity="0"/>
</radialGradient>
<radialGradient id="paint5_radial_2198_6543" cx="0" cy="0" r="1" gradientUnits="userSpaceOnUse" gradientTransform="translate(1974.81 970.893) rotate(90) scale(482.399)">
<stop stop-color="#BE3856" stop-opacity="0.3"/>
<stop offset="1" stop-color="#BE3856" stop-opacity="0"/>
</radialGradient>
<radialGradient id="paint6_radial_2198_6543" cx="0" cy="0" r="1" gradientUnits="userSpaceOnUse" gradientTransform="translate(2176.1 1191.55) rotate(90) scale(345.074 344.487)">
<stop stop-color="white" stop-opacity="0.1"/>
<stop offset="1" stop-color="white" stop-opacity="0"/>
</radialGradient>
<radialGradient id="paint7_radial_2198_6543" cx="0" cy="0" r="1" gradientUnits="userSpaceOnUse" gradientTransform="translate(-47.0575 2994.65) rotate(90) scale(482.399)">
<stop stop-color="#BE3856" stop-opacity="0.3"/>
<stop offset="1" stop-color="#BE3856" stop-opacity="0"/>
</radialGradient>
<radialGradient id="paint8_radial_2198_6543" cx="0" cy="0" r="1" gradientUnits="userSpaceOnUse" gradientTransform="translate(-248.352 2773.99) rotate(90) scale(345.074 344.487)">
<stop stop-color="white" stop-opacity="0.1"/>
<stop offset="1" stop-color="white" stop-opacity="0"/>
</radialGradient>
<clipPath id="clip0_2198_6543">
<rect width="1920" height="3052" fill="white"/>
</clipPath>
</defs>
</svg>
