<svg width="81" height="114" viewBox="0 0 81 114" fill="none" xmlns="http://www.w3.org/2000/svg">
<rect width="80.3845" height="80.3845" rx="40.1923" fill="white"/>
<path d="M66.8737 43.9657C64.6964 41.882 61.4446 40.4373 57.1749 39.576C59.9177 38.5758 61.9819 37.0477 63.3674 34.9918C64.753 32.9359 65.4316 30.2965 65.4316 27.0458V26.7402C65.4316 22.4338 63.6785 19.0999 60.1722 16.7661C56.6659 14.4045 51.9438 13.2099 46.034 13.1543H0V20.7946L9.27466 18.8776L21.2638 23.8786L27.1736 24.4064L29.3792 22.545L31.4716 22.0171L33.3944 25.7678L41.7642 32.1579V35.2141L48.4375 41.3263L41.3401 48.1888L30.9344 44.9659L24.2046 47.8832L14.1099 49.5501L4.01524 59.1909L0.904844 68.6649H17.5031L8.79396 57.4405L14.732 51.5505L23.7522 49.9669L22.8473 53.4676L26.9191 68.6927H42.5277C48.5223 68.6371 53.5272 68.1926 57.4859 67.3313C61.4446 66.47 64.555 64.942 66.7889 62.6915C69.0227 60.4411 70.1538 57.2738 70.1538 53.1619V52.8563C70.1538 48.9945 69.051 46.0495 66.8737 43.9657Z" fill="#2A2A2A"/>
<path d="M39.4615 114L30.6014 75.6347L48.3216 75.6347L39.4615 114Z" fill="white"/>
</svg>
