<svg width="190" height="34" viewBox="0 0 190 34" fill="none" xmlns="http://www.w3.org/2000/svg">
<path d="M17 0L22.4958 9.43569L33.168 11.7467L25.8924 19.8893L26.9923 30.7533L17 26.35L7.00765 30.7533L8.10762 19.8893L0.832039 11.7467L11.5042 9.43569L17 0Z" fill="white"/>
<path d="M65.12 17.66H67.22V20.76H65.12V23H61.18V20.76H50.66V17.66L61.18 8.2H65.12V17.66ZM61.18 11.8L54.98 17.66H61.18V11.8ZM68.4711 19.6H72.3511V23H68.4711V19.6ZM91.9292 14.04C91.9559 14.4667 91.9692 14.78 91.9692 14.98C91.9692 18.1667 91.0226 20.3667 89.1292 21.58C87.2359 22.7933 84.9559 23.4 82.2892 23.4C79.7426 23.4 77.7026 22.9933 76.1692 22.18C74.6492 21.3667 73.8892 20.1067 73.8892 18.4L77.7492 18.44C77.7492 19.2133 78.1826 19.7733 79.0492 20.12C79.9292 20.4667 81.0026 20.6267 82.2692 20.6C83.6959 20.6267 84.9426 20.32 86.0092 19.68C87.0892 19.04 87.7092 18.02 87.8692 16.62C86.9359 17.22 85.8359 17.6 84.5692 17.76C83.3159 17.9067 81.9826 17.98 80.5692 17.98C79.1426 17.98 77.8959 17.7867 76.8292 17.4C75.7759 17.0133 74.9559 16.46 74.3692 15.74C73.7959 15.02 73.5092 14.1733 73.5092 13.2V13.18V13.16C73.5092 11.96 73.9026 10.96 74.6892 10.16C75.4759 9.36 76.5292 8.77333 77.8492 8.4C79.1692 8.01333 80.6492 7.82 82.2892 7.82C85.2359 7.82 87.5092 8.32 89.1092 9.32C90.7092 10.3067 91.6492 11.88 91.9292 14.04ZM82.7692 15.74C85.8892 15.74 87.5092 15.1067 87.6292 13.84H87.6092C87.6626 12.8933 87.3559 12.2 86.6892 11.76C86.0226 11.3067 85.3359 11.04 84.6292 10.96C83.9226 10.8667 83.1359 10.8133 82.2692 10.8C80.9359 10.8 79.8092 10.9867 78.8892 11.36C77.9692 11.7333 77.5092 12.3267 77.5092 13.14C77.5092 13.86 77.7292 14.4133 78.1692 14.8C78.6092 15.1733 79.2026 15.4267 79.9492 15.56C80.6959 15.68 81.6359 15.74 82.7692 15.74Z" fill="white"/>
<path d="M102.308 24.4H101.384C100.357 22.3467 99.8439 20.2467 99.8439 18.1C99.8439 15.9533 100.357 13.8533 101.384 11.8H102.308C101.281 13.8533 100.768 15.9533 100.768 18.1C100.768 20.2467 101.281 22.3467 102.308 24.4ZM106.853 16.7C107.805 16.7 108.593 17.0033 109.219 17.61C109.835 18.2167 110.143 18.9913 110.143 19.934C110.143 20.8953 109.835 21.6747 109.219 22.272C108.612 22.8693 107.823 23.168 106.853 23.168C105.882 23.168 105.093 22.8693 104.487 22.272C103.871 21.6747 103.563 20.8953 103.563 19.934C103.563 19.1967 103.763 18.5433 104.165 17.974L107.371 13.2H108.477L106.069 16.784C106.321 16.728 106.582 16.7 106.853 16.7ZM105.173 21.586C105.611 22.006 106.171 22.216 106.853 22.216C107.543 22.216 108.099 22.006 108.519 21.586C108.948 21.166 109.163 20.6153 109.163 19.934C109.163 19.2527 108.948 18.702 108.519 18.282C108.099 17.862 107.543 17.652 106.853 17.652C106.171 17.652 105.611 17.862 105.173 18.282C104.753 18.702 104.543 19.2527 104.543 19.934C104.543 20.6153 104.753 21.166 105.173 21.586ZM112.771 17.148H114.423C115.347 17.148 116.122 17.4187 116.747 17.96C117.391 18.492 117.713 19.2247 117.713 20.158C117.713 21.082 117.391 21.8193 116.747 22.37C116.122 22.902 115.347 23.168 114.423 23.168C113.667 23.168 113 22.986 112.421 22.622C111.852 22.2487 111.469 21.7353 111.273 21.082L112.099 20.606C112.239 21.1193 112.514 21.516 112.925 21.796C113.336 22.076 113.835 22.216 114.423 22.216C115.114 22.216 115.669 22.034 116.089 21.67C116.518 21.2967 116.733 20.7927 116.733 20.158C116.733 19.5233 116.518 19.024 116.089 18.66C115.669 18.2867 115.114 18.1 114.423 18.1H111.763L112.113 13.2H117.363V14.124H112.981L112.771 17.148ZM125.204 20.116H126.464V21.04H125.204V23H124.224V21.04H119.044V20.116L122.684 13.2H123.762L120.122 20.116H124.224V17.12H125.204V20.116ZM138.001 22.118C137.282 22.818 136.414 23.168 135.397 23.168C134.361 23.168 133.488 22.818 132.779 22.118C132.069 21.4087 131.715 20.536 131.715 19.5C131.715 18.464 132.069 17.596 132.779 16.896C133.488 16.1867 134.361 15.832 135.397 15.832C136.423 15.832 137.291 16.1867 138.001 16.896C138.719 17.596 139.079 18.464 139.079 19.5C139.079 20.5267 138.719 21.3993 138.001 22.118ZM133.437 21.474C133.969 22.006 134.622 22.272 135.397 22.272C136.171 22.272 136.825 22.006 137.357 21.474C137.889 20.9233 138.155 20.2653 138.155 19.5C138.155 18.7253 137.889 18.072 137.357 17.54C136.825 16.9987 136.171 16.728 135.397 16.728C134.622 16.728 133.969 16.9987 133.437 17.54C132.905 18.072 132.639 18.7253 132.639 19.5C132.639 20.2653 132.905 20.9233 133.437 21.474ZM139.931 16H145.811V16.896H143.333V23H142.409V16.896H139.931V16ZM150.696 19.402C151.508 19.71 151.914 20.27 151.914 21.082C151.914 21.67 151.685 22.1647 151.228 22.566C150.789 22.9673 150.145 23.168 149.296 23.168C147.877 23.168 146.953 22.608 146.524 21.488L147.308 21.026C147.607 21.8567 148.269 22.272 149.296 22.272C149.828 22.272 150.243 22.16 150.542 21.936C150.841 21.7027 150.99 21.3993 150.99 21.026C150.99 20.69 150.869 20.424 150.626 20.228C150.383 20.0227 150.057 19.92 149.646 19.92H148.624V19.024H149.366C149.767 19.024 150.08 18.926 150.304 18.73C150.537 18.5247 150.654 18.2447 150.654 17.89C150.654 17.554 150.514 17.2787 150.234 17.064C149.963 16.84 149.604 16.728 149.156 16.728C148.288 16.728 147.705 17.078 147.406 17.778L146.636 17.33C147.103 16.3313 147.943 15.832 149.156 15.832C149.903 15.832 150.491 16.028 150.92 16.42C151.359 16.8027 151.578 17.274 151.578 17.834C151.578 18.5527 151.284 19.0753 150.696 19.402ZM154.662 18.66H156.58C157.224 18.66 157.775 18.8653 158.232 19.276C158.69 19.6773 158.918 20.1953 158.918 20.83C158.918 21.474 158.69 21.9967 158.232 22.398C157.794 22.7993 157.243 23 156.58 23H153.738V16H154.662V18.66ZM159.898 23V16H160.822V23H159.898ZM154.662 22.104H156.58C156.982 22.104 157.318 21.9873 157.588 21.754C157.859 21.5113 157.994 21.2033 157.994 20.83C157.994 20.4567 157.859 20.1533 157.588 19.92C157.318 19.6773 156.982 19.556 156.58 19.556H154.662V22.104ZM167.661 19.402C168.427 19.682 168.809 20.228 168.809 21.04C168.809 21.6187 168.613 22.09 168.221 22.454C167.839 22.818 167.302 23 166.611 23H163.209V16H166.331C167.003 16 167.526 16.1727 167.899 16.518C168.282 16.8633 168.473 17.316 168.473 17.876C168.473 18.576 168.203 19.0847 167.661 19.402ZM166.331 16.896H164.133V19.024H166.331C167.143 19.024 167.549 18.66 167.549 17.932C167.549 17.6053 167.442 17.3533 167.227 17.176C167.022 16.9893 166.723 16.896 166.331 16.896ZM164.133 22.104H166.611C167.022 22.104 167.335 22.006 167.549 21.81C167.773 21.614 167.885 21.3387 167.885 20.984C167.885 20.648 167.773 20.3867 167.549 20.2C167.335 20.0133 167.022 19.92 166.611 19.92H164.133V22.104ZM176.495 22.118C175.777 22.818 174.909 23.168 173.891 23.168C172.855 23.168 171.983 22.818 171.273 22.118C170.564 21.4087 170.209 20.536 170.209 19.5C170.209 18.464 170.564 17.596 171.273 16.896C171.983 16.1867 172.855 15.832 173.891 15.832C174.918 15.832 175.786 16.1867 176.495 16.896C177.214 17.596 177.573 18.464 177.573 19.5C177.573 20.5267 177.214 21.3993 176.495 22.118ZM171.931 21.474C172.463 22.006 173.117 22.272 173.891 22.272C174.666 22.272 175.319 22.006 175.851 21.474C176.383 20.9233 176.649 20.2653 176.649 19.5C176.649 18.7253 176.383 18.072 175.851 17.54C175.319 16.9987 174.666 16.728 173.891 16.728C173.117 16.728 172.463 16.9987 171.931 17.54C171.399 18.072 171.133 18.7253 171.133 19.5C171.133 20.2653 171.399 20.9233 171.931 21.474ZM183.991 19.402C184.757 19.682 185.139 20.228 185.139 21.04C185.139 21.6187 184.943 22.09 184.551 22.454C184.169 22.818 183.632 23 182.941 23H179.539V16H182.661C183.333 16 183.856 16.1727 184.229 16.518C184.612 16.8633 184.803 17.316 184.803 17.876C184.803 18.576 184.533 19.0847 183.991 19.402ZM182.661 16.896H180.463V19.024H182.661C183.473 19.024 183.879 18.66 183.879 17.932C183.879 17.6053 183.772 17.3533 183.557 17.176C183.352 16.9893 183.053 16.896 182.661 16.896ZM180.463 22.104H182.941C183.352 22.104 183.665 22.006 183.879 21.81C184.103 21.614 184.215 21.3387 184.215 20.984C184.215 20.648 184.103 20.3867 183.879 20.2C183.665 20.0133 183.352 19.92 182.941 19.92H180.463V22.104ZM187.323 24.4H186.399C187.426 22.3467 187.939 20.2467 187.939 18.1C187.939 15.9533 187.426 13.8533 186.399 11.8H187.323C188.35 13.8533 188.863 15.9533 188.863 18.1C188.863 20.2467 188.35 22.3467 187.323 24.4Z" fill="#D5D4D4"/>
</svg>
