<svg width="172" height="24" viewBox="0 0 172 24" fill="none" xmlns="http://www.w3.org/2000/svg">
<path d="M9.54231 5.95757H0V0.928089H25.0594V5.95757H15.6364V22.5852H9.54231V5.95757Z" fill="white"/>
<path d="M44.4583 4.99219C46.2366 5.82682 47.6355 6.98664 48.6439 8.46079C49.6632 9.93495 50.162 11.5934 50.162 13.4361C50.162 15.2788 49.6524 16.9047 48.6439 18.368C47.6246 19.8313 46.2366 20.9803 44.4583 21.8258C42.68 22.6604 40.6739 23.0831 38.451 23.0831C36.2281 23.0831 34.3305 22.6604 32.5304 21.8258C30.7304 20.9911 29.2882 19.8313 28.2255 18.3572C27.1629 16.883 26.6315 15.2463 26.6315 13.4361C26.6315 11.6259 27.1629 9.95663 28.2147 8.47163C29.2665 6.99748 30.7087 5.83766 32.5196 4.99219C34.3305 4.15755 36.3148 3.73482 38.451 3.73482C40.5872 3.73482 42.68 4.15755 44.4583 4.99219ZM43.8511 10.4336C43.2547 9.57725 42.4739 8.92689 41.5089 8.47163C40.5438 8.02722 39.5245 7.79959 38.4402 7.79959C37.3558 7.79959 36.2823 8.01638 35.3064 8.46079C34.3305 8.90521 33.5606 9.54473 32.975 10.3902C32.3895 11.2357 32.0967 12.2329 32.0967 13.3819C32.0967 14.5309 32.3895 15.5498 32.9859 16.4061C33.5822 17.2624 34.363 17.9127 35.3281 18.3463C36.304 18.7907 37.3341 19.0075 38.4293 19.0075C39.5245 19.0075 40.533 18.7907 41.498 18.3463C42.4631 17.9019 43.2438 17.2624 43.8402 16.4278C44.4366 15.5931 44.7402 14.5851 44.7402 13.4252C44.7402 12.2654 44.4366 11.279 43.8402 10.4227L43.8511 10.4336Z" fill="white"/>
<path d="M65.4733 4.13605C67.024 4.13605 68.3903 4.39619 69.5722 4.90564C70.765 5.42594 71.6867 6.14134 72.3373 7.06269C72.9988 7.98403 73.3241 9.05714 73.3241 10.2711V10.3687C73.3241 12.3848 72.6843 13.924 71.3939 14.9971C70.1035 16.0702 68.2818 16.6014 65.9179 16.6014H57.1672V22.5847H51.984V4.13605H65.4733ZM57.1455 12.7859H64.6818C65.5926 12.7859 66.2975 12.7534 66.7854 12.6775C67.2734 12.6016 67.6854 12.3957 68.0324 12.0597C68.3794 11.7236 68.5421 11.1708 68.5421 10.4012C68.5421 9.63162 68.3686 9.0463 68.0324 8.6886C67.6963 8.3309 67.2625 8.11411 66.7637 8.02739C66.2541 7.94068 65.5601 7.90816 64.6818 7.90816L57.1455 7.92984V12.7859Z" fill="white"/>
<path d="M104.304 4.13605H123.638L123.66 8.04907H109.466V11.1925H121.534V15.0622H109.466V18.7476L123.627 18.65V22.5847H104.293V4.13605H104.304Z" fill="white"/>
<path d="M142.419 19.0402H131.369L129.45 22.5847H124.158L134.156 4.13605H139.643L149.641 22.5847H144.327L142.408 19.0402H142.419ZM140.369 15.2573L136.899 8.85119L133.408 15.2573H140.369Z" fill="white"/>
<path d="M164.008 4.11433C165.559 4.11433 166.925 4.37448 168.107 4.88393C169.3 5.40422 170.222 6.11962 170.872 7.04097C171.534 7.96232 171.859 9.03542 171.859 10.2494V10.347C171.859 11.9295 171.393 13.2303 170.471 14.26C169.549 15.2898 168.27 15.9835 166.643 16.3303L172 22.563H165.819L160.712 16.6013H155.496V22.563H150.508V4.11433H163.998H164.008ZM163.011 12.7858H163.032C163.943 12.7858 164.648 12.7533 165.158 12.6775C165.657 12.6016 166.058 12.3956 166.383 12.0379C166.698 11.6911 166.86 11.1383 166.86 10.3903C166.86 9.58823 166.698 9.01374 166.383 8.6452C166.069 8.27666 165.657 8.05987 165.158 7.97316C164.659 7.88644 163.954 7.85392 163.032 7.85392L162.013 7.8756C160.647 7.90812 158.478 7.9298 155.507 7.9298V12.7858H163.011Z" fill="white"/>
<path d="M101.062 12.9376C100.227 12.1246 98.9799 11.561 97.3425 11.2249C98.3943 10.8347 99.1859 10.2386 99.7172 9.43644C100.249 8.63432 100.509 7.60458 100.509 6.33637V6.21713C100.509 4.53703 99.8365 3.2363 98.4919 2.32579C97.1473 1.40444 95.3365 0.938347 93.0702 0.916668H75.4169V3.8975L78.9736 3.14958L83.5712 5.10068L85.8375 5.30662L86.6833 4.58038L87.4857 4.37444L88.2231 5.83776L91.4328 8.33082V9.52315L93.9919 11.9078L91.2701 14.5852L87.2797 13.3278L84.699 14.4659L80.8278 15.1163L76.9567 18.8776L75.7639 22.5738H82.129L78.7892 18.1947L81.0664 15.8967L84.5255 15.2789L84.1785 16.6446L85.7399 22.5846H91.7256C94.0244 22.5629 95.9437 22.3895 97.4618 22.0535C98.9799 21.7175 100.173 21.1213 101.029 20.2433C101.886 19.3653 102.32 18.1296 102.32 16.5254V16.4062C102.32 14.8995 101.897 13.7505 101.062 12.9376Z" fill="white"/>
</svg>
